<svg width="129" height="16" viewBox="0 0 129 16" fill="none" xmlns="http://www.w3.org/2000/svg">
<g opacity="0.15" clip-path="url(#clip0_77_36512)">
<path d="M-15.002 0L-7.00169 4.80904e-06L8.99805 16L0.998047 16L-15.002 0Z" fill="white"/>
<path d="M8.99831 4.80904e-06L0.998047 0L16.998 16L24.998 16L8.99831 4.80904e-06Z" fill="white"/>
<path d="M24.9983 4.80904e-06L16.998 0L32.998 16L40.998 16L24.9983 4.80904e-06Z" fill="white"/>
<path d="M40.9983 4.80904e-06L32.998 0L48.998 16L56.998 16L40.9983 4.80904e-06Z" fill="white"/>
<path d="M56.9983 4.80904e-06L48.998 0L64.998 16L72.998 16L56.9983 4.80904e-06Z" fill="white"/>
<path d="M72.9983 4.80904e-06L64.998 0L80.998 16L88.998 16L72.9983 4.80904e-06Z" fill="white"/>
<path d="M88.9983 4.80904e-06L80.998 0L96.998 16L104.998 16L88.9983 4.80904e-06Z" fill="white"/>
<path d="M104.998 4.80904e-06L96.998 0L112.998 16L120.998 16L104.998 4.80904e-06Z" fill="white"/>
<path d="M120.998 4.80904e-06L112.998 0L128.998 16L136.998 16L120.998 4.80904e-06Z" fill="white"/>
<path d="M136.998 4.80904e-06L128.998 0L144.998 16L152.998 16L136.998 4.80904e-06Z" fill="white"/>
<path d="M152.998 4.80904e-06L144.998 0L160.998 16L168.998 16L152.998 4.80904e-06Z" fill="white"/>
<path d="M168.998 4.80904e-06L160.998 0L176.998 16L184.998 16L168.998 4.80904e-06Z" fill="white"/>
<path d="M184.998 4.80904e-06L176.998 0L192.998 16L200.998 16L184.998 4.80904e-06Z" fill="white"/>
<path d="M200.998 4.80904e-06L192.998 0L208.998 16L216.998 16L200.998 4.80904e-06Z" fill="white"/>
<path d="M216.998 4.80904e-06L208.998 0L224.998 16L232.998 16L216.998 4.80904e-06Z" fill="white"/>
<path d="M224.998 0L232.998 4.80904e-06L248.998 16L240.998 16L224.998 0Z" fill="white"/>
<path d="M240.998 0L248.998 4.80904e-06L264.998 16L256.998 16L240.998 0Z" fill="white"/>
<path d="M264.998 4.80904e-06L256.998 0L272.998 16L280.998 16L264.998 4.80904e-06Z" fill="white"/>
<path d="M280.998 4.80904e-06L272.998 0L288.998 16L296.998 16L280.998 4.80904e-06Z" fill="white"/>
<path d="M296.998 4.80904e-06L288.998 0L304.998 16L312.998 16L296.998 4.80904e-06Z" fill="white"/>
<path d="M312.998 4.80904e-06L304.998 0L320.998 16L328.998 16L312.998 4.80904e-06Z" fill="white"/>
<path d="M328.998 4.80904e-06L320.998 0L336.998 16L344.998 16L328.998 4.80904e-06Z" fill="white"/>
<path d="M344.998 4.80904e-06L336.998 0L352.998 16L360.998 16L344.998 4.80904e-06Z" fill="white"/>
<path d="M360.998 4.80904e-06L352.998 0L368.998 16L376.998 16L360.998 4.80904e-06Z" fill="white"/>
<path d="M376.998 4.80904e-06L368.998 0L384.998 16L392.998 16L376.998 4.80904e-06Z" fill="white"/>
<path d="M392.998 4.80904e-06L384.998 0L400.998 16L408.998 16L392.998 4.80904e-06Z" fill="white"/>
<path d="M408.998 4.80904e-06L400.998 0L416.998 16L424.998 16L408.998 4.80904e-06Z" fill="white"/>
<path d="M424.998 4.80904e-06L416.998 0L432.998 16L440.998 16L424.998 4.80904e-06Z" fill="white"/>
</g>
<defs>
<clipPath id="clip0_77_36512">
<rect width="128" height="16" fill="white" transform="translate(0.998047)"/>
</clipPath>
</defs>
</svg>
