<svg width="129" height="16" viewBox="0 0 129 16" fill="none" xmlns="http://www.w3.org/2000/svg">
<g opacity="0.15" clip-path="url(#clip0_22_28684)">
<path d="M-15.002 0.000366211L-7.00169 0.00037102L8.99805 16.0004L0.998047 16.0004L-15.002 0.000366211Z" fill="white"/>
<path d="M8.99831 0.00037102L0.998047 0.000366211L16.998 16.0004L24.998 16.0004L8.99831 0.00037102Z" fill="white"/>
<path d="M24.9983 0.00037102L16.998 0.000366211L32.998 16.0004L40.998 16.0004L24.9983 0.00037102Z" fill="white"/>
<path d="M40.9983 0.00037102L32.998 0.000366211L48.998 16.0004L56.998 16.0004L40.9983 0.00037102Z" fill="white"/>
<path d="M56.9983 0.00037102L48.998 0.000366211L64.998 16.0004L72.998 16.0004L56.9983 0.00037102Z" fill="white"/>
<path d="M72.9983 0.00037102L64.998 0.000366211L80.998 16.0004L88.998 16.0004L72.9983 0.00037102Z" fill="white"/>
<path d="M88.9983 0.00037102L80.998 0.000366211L96.998 16.0004L104.998 16.0004L88.9983 0.00037102Z" fill="white"/>
<path d="M104.998 0.00037102L96.998 0.000366211L112.998 16.0004L120.998 16.0004L104.998 0.00037102Z" fill="white"/>
<path d="M120.998 0.00037102L112.998 0.000366211L128.998 16.0004L136.998 16.0004L120.998 0.00037102Z" fill="white"/>
<path d="M136.998 0.00037102L128.998 0.000366211L144.998 16.0004L152.998 16.0004L136.998 0.00037102Z" fill="white"/>
<path d="M152.998 0.00037102L144.998 0.000366211L160.998 16.0004L168.998 16.0004L152.998 0.00037102Z" fill="white"/>
<path d="M168.998 0.00037102L160.998 0.000366211L176.998 16.0004L184.998 16.0004L168.998 0.00037102Z" fill="white"/>
<path d="M184.998 0.00037102L176.998 0.000366211L192.998 16.0004L200.998 16.0004L184.998 0.00037102Z" fill="white"/>
<path d="M200.998 0.00037102L192.998 0.000366211L208.998 16.0004L216.998 16.0004L200.998 0.00037102Z" fill="white"/>
<path d="M216.998 0.00037102L208.998 0.000366211L224.998 16.0004L232.998 16.0004L216.998 0.00037102Z" fill="white"/>
<path d="M224.998 0.000366211L232.998 0.00037102L248.998 16.0004L240.998 16.0004L224.998 0.000366211Z" fill="white"/>
<path d="M240.998 0.000366211L248.998 0.00037102L264.998 16.0004L256.998 16.0004L240.998 0.000366211Z" fill="white"/>
<path d="M264.998 0.00037102L256.998 0.000366211L272.998 16.0004L280.998 16.0004L264.998 0.00037102Z" fill="white"/>
<path d="M280.998 0.00037102L272.998 0.000366211L288.998 16.0004L296.998 16.0004L280.998 0.00037102Z" fill="white"/>
<path d="M296.998 0.00037102L288.998 0.000366211L304.998 16.0004L312.998 16.0004L296.998 0.00037102Z" fill="white"/>
<path d="M312.998 0.00037102L304.998 0.000366211L320.998 16.0004L328.998 16.0004L312.998 0.00037102Z" fill="white"/>
<path d="M328.998 0.00037102L320.998 0.000366211L336.998 16.0004L344.998 16.0004L328.998 0.00037102Z" fill="white"/>
<path d="M344.998 0.00037102L336.998 0.000366211L352.998 16.0004L360.998 16.0004L344.998 0.00037102Z" fill="white"/>
<path d="M360.998 0.00037102L352.998 0.000366211L368.998 16.0004L376.998 16.0004L360.998 0.00037102Z" fill="white"/>
<path d="M376.998 0.00037102L368.998 0.000366211L384.998 16.0004L392.998 16.0004L376.998 0.00037102Z" fill="white"/>
<path d="M392.998 0.00037102L384.998 0.000366211L400.998 16.0004L408.998 16.0004L392.998 0.00037102Z" fill="white"/>
<path d="M408.998 0.00037102L400.998 0.000366211L416.998 16.0004L424.998 16.0004L408.998 0.00037102Z" fill="white"/>
<path d="M424.998 0.00037102L416.998 0.000366211L432.998 16.0004L440.998 16.0004L424.998 0.00037102Z" fill="white"/>
</g>
<defs>
<clipPath id="clip0_22_28684">
<rect width="128" height="16" fill="white" transform="translate(0.998047 0.000366211)"/>
</clipPath>
</defs>
</svg>
