<svg width="129" height="16" viewBox="0 0 129 16" fill="none" xmlns="http://www.w3.org/2000/svg">
<g opacity="0.15" clip-path="url(#clip0_22_27344)">
<path d="M-15.6687 0L-7.66843 4.80904e-06L8.3313 16L0.331299 16L-15.6687 0Z" fill="white"/>
<path d="M8.33157 4.80904e-06L0.331299 0L16.3313 16L24.3313 16L8.33157 4.80904e-06Z" fill="white"/>
<path d="M24.3316 4.80904e-06L16.3313 0L32.3313 16L40.3313 16L24.3316 4.80904e-06Z" fill="white"/>
<path d="M40.3316 4.80904e-06L32.3313 0L48.3313 16L56.3313 16L40.3316 4.80904e-06Z" fill="white"/>
<path d="M56.3316 4.80904e-06L48.3313 0L64.3313 16L72.3313 16L56.3316 4.80904e-06Z" fill="white"/>
<path d="M72.3316 4.80904e-06L64.3313 0L80.3313 16L88.3313 16L72.3316 4.80904e-06Z" fill="white"/>
<path d="M88.3316 4.80904e-06L80.3313 0L96.3313 16L104.331 16L88.3316 4.80904e-06Z" fill="white"/>
<path d="M104.332 4.80904e-06L96.3313 0L112.331 16L120.331 16L104.332 4.80904e-06Z" fill="white"/>
<path d="M120.332 4.80904e-06L112.331 0L128.331 16L136.331 16L120.332 4.80904e-06Z" fill="white"/>
<path d="M136.332 4.80904e-06L128.331 0L144.331 16L152.331 16L136.332 4.80904e-06Z" fill="white"/>
<path d="M152.332 4.80904e-06L144.331 0L160.331 16L168.331 16L152.332 4.80904e-06Z" fill="white"/>
<path d="M168.332 4.80904e-06L160.331 0L176.331 16L184.331 16L168.332 4.80904e-06Z" fill="white"/>
<path d="M184.332 4.80904e-06L176.331 0L192.331 16L200.331 16L184.332 4.80904e-06Z" fill="white"/>
<path d="M200.332 4.80904e-06L192.331 0L208.331 16L216.331 16L200.332 4.80904e-06Z" fill="white"/>
<path d="M216.332 4.80904e-06L208.331 0L224.331 16L232.331 16L216.332 4.80904e-06Z" fill="white"/>
<path d="M224.331 0L232.332 4.80904e-06L248.331 16L240.331 16L224.331 0Z" fill="white"/>
<path d="M240.331 0L248.332 4.80904e-06L264.331 16L256.331 16L240.331 0Z" fill="white"/>
<path d="M264.332 4.80904e-06L256.331 0L272.331 16L280.331 16L264.332 4.80904e-06Z" fill="white"/>
<path d="M280.332 4.80904e-06L272.331 0L288.331 16L296.331 16L280.332 4.80904e-06Z" fill="white"/>
<path d="M296.332 4.80904e-06L288.331 0L304.331 16L312.331 16L296.332 4.80904e-06Z" fill="white"/>
<path d="M312.332 4.80904e-06L304.331 0L320.331 16L328.331 16L312.332 4.80904e-06Z" fill="white"/>
<path d="M328.332 4.80904e-06L320.331 0L336.331 16L344.331 16L328.332 4.80904e-06Z" fill="white"/>
<path d="M344.332 4.80904e-06L336.331 0L352.331 16L360.331 16L344.332 4.80904e-06Z" fill="white"/>
<path d="M360.332 4.80904e-06L352.331 0L368.331 16L376.331 16L360.332 4.80904e-06Z" fill="white"/>
<path d="M376.332 4.80904e-06L368.331 0L384.331 16L392.331 16L376.332 4.80904e-06Z" fill="white"/>
<path d="M392.332 4.80904e-06L384.331 0L400.331 16L408.331 16L392.332 4.80904e-06Z" fill="white"/>
<path d="M408.332 4.80904e-06L400.331 0L416.331 16L424.331 16L408.332 4.80904e-06Z" fill="white"/>
<path d="M424.332 4.80904e-06L416.331 0L432.331 16L440.331 16L424.332 4.80904e-06Z" fill="white"/>
</g>
<defs>
<clipPath id="clip0_22_27344">
<rect width="128" height="16" fill="white" transform="translate(0.331299)"/>
</clipPath>
</defs>
</svg>
