<svg width="61" height="40" viewBox="0 0 61 40" fill="none" xmlns="http://www.w3.org/2000/svg">
<g clip-path="url(#clip0_22_27534)">
<path d="M57.2328 28.0623C57.3469 29.0234 57.4136 29.9996 57.4302 30.9883L54.4306 31.0387C54.433 31.1852 54.4343 31.332 54.4343 31.4792C54.4343 31.6263 54.433 31.7732 54.4306 31.9197L57.4302 31.97C57.4136 32.9588 57.3469 33.935 57.2328 34.896L54.2537 34.5421C54.2192 34.8326 54.1799 35.1215 54.1358 35.4087L57.101 35.8641C56.9512 36.8393 56.7523 37.7977 56.5069 38.7364L53.6044 37.9777C53.5306 38.2602 53.4521 38.5407 53.3689 38.819L56.2434 39.6776C55.9617 40.6209 55.6325 41.5428 55.2589 42.4404L52.4893 41.2875C52.3772 41.5569 52.2606 41.8238 52.1396 42.0882L54.8674 43.3367C54.4585 44.2301 54.0048 45.0975 53.5093 45.9357L50.9268 44.409C50.7784 44.66 50.6259 44.908 50.4692 45.153L52.9968 46.769C52.4683 47.5956 51.8982 48.3914 51.2895 49.1532L48.9457 47.2806C48.764 47.5081 48.5785 47.7321 48.3892 47.9526L50.6655 49.9066C50.0273 50.6501 49.3512 51.3581 48.6401 52.0273L46.584 49.8427C46.3724 50.0419 46.1574 50.2371 45.9392 50.4283L47.916 52.6848C47.1801 53.3296 46.4101 53.9343 45.6094 54.4958L43.8871 52.0394C43.6499 52.2057 43.4097 52.3677 43.1666 52.5253L44.7986 55.0425C43.979 55.5739 43.1298 56.061 42.254 56.5006L40.9081 53.8195C40.65 53.9491 40.3894 54.074 40.1263 54.1941L41.3723 56.9231C40.4859 57.3278 39.5744 57.6847 38.6408 57.9906L37.7066 55.1398C37.4329 55.2295 37.1572 55.3142 36.8794 55.3938L37.7064 58.2776C36.7725 58.5454 35.8182 58.7627 34.8464 58.9264L34.3479 55.9681C34.0643 56.0159 33.779 56.0586 33.4921 56.096L33.8797 59.0708C32.9198 59.1959 31.944 59.269 30.9554 59.2872L30.9002 56.2877C30.7553 56.2903 30.6101 56.2917 30.4646 56.2917C30.319 56.2917 30.1738 56.2903 30.029 56.2877L29.9738 59.2872C28.9851 59.269 28.0094 59.1959 27.0494 59.0708L27.4371 56.096C27.1501 56.0586 26.8648 56.0159 26.5812 55.9681L26.0828 58.9264C25.111 58.7627 24.1567 58.5454 23.2228 58.2776L24.0498 55.3938C23.772 55.3142 23.4962 55.2295 23.2226 55.1398L22.2884 57.9906C21.3548 57.6847 20.4433 57.3278 19.5568 56.9231L20.8028 54.1941C20.5398 54.074 20.2792 53.9491 20.0211 53.8195L18.6751 56.5006C17.7993 56.061 16.9501 55.5739 16.1306 55.0425L17.7625 52.5253C17.5194 52.3677 17.2792 52.2057 17.042 52.0394L15.3198 54.4958C14.519 53.9343 13.7491 53.3296 13.0131 52.6849L14.99 50.4283C14.7717 50.2371 14.5567 50.0419 14.3452 49.8428L12.289 52.0273C11.578 51.3581 10.9018 50.6501 10.2636 49.9066L12.54 47.9526C12.3507 47.7321 12.1651 47.5081 11.9834 47.2806L9.63963 49.1532C9.03097 48.3914 8.46085 47.5956 7.93236 46.769L10.4599 45.153C10.3033 44.908 10.1507 44.66 10.0024 44.409L7.41986 45.9357C6.92437 45.0975 6.47066 44.2301 6.06174 43.3367L8.78958 42.0882C8.66859 41.8238 8.55198 41.5569 8.43985 41.2875L5.6702 42.4404C5.2966 41.5428 4.96749 40.6209 4.68573 39.6776L7.56023 38.819C7.47709 38.5407 7.39855 38.2602 7.32471 37.9777L4.42223 38.7364C4.17685 37.7977 3.97793 36.8393 3.82816 35.8641L6.79339 35.4087C6.74929 35.1215 6.70994 34.8326 6.67543 34.5421L3.69637 34.896C3.58221 33.935 3.51558 32.9588 3.49899 31.97L6.49857 31.9197C6.49611 31.7732 6.49487 31.6263 6.49487 31.4792C6.49487 31.332 6.49611 31.1852 6.49857 31.0387L3.49899 30.9883C3.51558 29.9996 3.58221 29.0234 3.69637 28.0623L6.67543 28.4162C6.70994 28.1257 6.74929 27.8368 6.79339 27.5496L3.82816 27.0943C3.97793 26.119 4.17685 25.1606 4.42223 24.2219L7.32471 24.9806C7.39855 24.6981 7.47709 24.4177 7.56023 24.1393L4.68573 23.2807C4.96749 22.3374 5.2966 21.4155 5.6702 20.518L8.43985 21.6708C8.55198 21.4014 8.66859 21.1345 8.78958 20.8702L6.06174 19.6216C6.47066 18.7282 6.92436 17.8608 7.41986 17.0227L10.0024 18.5493C10.1507 18.2983 10.3033 18.0503 10.4599 17.8053L7.93236 16.1893C8.46085 15.3627 9.03097 14.5669 9.63962 13.8051L11.9834 15.6777C12.1651 15.4503 12.3507 15.2262 12.54 15.0058L10.2636 13.0517C10.9018 12.3083 11.578 11.6003 12.289 10.931L14.3452 13.1156C14.5567 12.9165 14.7717 12.7212 14.99 12.53L13.0131 10.2735C13.7491 9.62874 14.519 9.02402 15.3198 8.46257L17.042 10.919C17.2792 10.7527 17.5194 10.5907 17.7625 10.4331L16.1306 7.91579C16.9501 7.38447 17.7993 6.89737 18.6751 6.45773L20.0211 9.13884C20.2792 9.00927 20.5398 8.88439 20.8028 8.76428L19.5568 6.03528C20.4433 5.63055 21.3548 5.27364 22.2884 4.96772L23.2225 7.81856C23.4962 7.72889 23.772 7.64417 24.0498 7.56451L23.2228 4.68075C24.1567 4.41293 25.111 4.19563 26.0828 4.0319L26.5812 6.9902C26.8648 6.94241 27.1501 6.89978 27.4371 6.86238L27.0494 3.88754C28.0094 3.76244 28.9851 3.68938 29.9738 3.67118L30.029 6.67067C30.1738 6.66801 30.319 6.66667 30.4646 6.66667C30.6101 6.66667 30.7553 6.66801 30.9002 6.67067L30.9554 3.67118C31.944 3.68938 32.9198 3.76244 33.8797 3.88753L33.4921 6.86238C33.779 6.89978 34.0643 6.94241 34.3479 6.9902L34.8464 4.0319C35.8182 4.19563 36.7725 4.41293 37.7064 4.68075L36.8794 7.56451C37.1572 7.64417 37.4329 7.72889 37.7066 7.81856L38.6408 4.96772C39.5743 5.27364 40.4859 5.63055 41.3723 6.03528L40.1263 8.76428C40.3894 8.88439 40.65 9.00927 40.9081 9.13884L42.254 6.45773C43.1298 6.89737 43.979 7.38447 44.7986 7.91579L43.1666 10.4331C43.4097 10.5907 43.6499 10.7527 43.8871 10.919L45.6094 8.46257C46.4101 9.02402 47.1801 9.62874 47.916 10.2735L45.9392 12.53C46.1574 12.7212 46.3724 12.9165 46.584 13.1156L48.6401 10.931C49.3512 11.6003 50.0273 12.3083 50.6655 13.0517L48.3892 15.0057C48.5785 15.2262 48.764 15.4503 48.9457 15.6777L51.2895 13.8051C51.8982 14.5669 52.4683 15.3627 52.9968 16.1893L50.4692 17.8053C50.6259 18.0503 50.7784 18.2983 50.9268 18.5493L53.5093 17.0226C54.0048 17.8608 54.4585 18.7282 54.8674 19.6216L52.1396 20.8702C52.2606 21.1345 52.3772 21.4014 52.4893 21.6708L55.2589 20.518C55.6325 21.4155 55.9617 22.3374 56.2434 23.2807L53.3689 24.1393C53.4521 24.4177 53.5306 24.6981 53.6044 24.9806L56.5069 24.2219C56.7523 25.1606 56.9512 26.119 57.101 27.0943L54.1358 27.5496C54.1799 27.8368 54.2192 28.1257 54.2537 28.4162L57.2328 28.0623Z" stroke="#ADB5BD" stroke-width="6" stroke-dasharray="1 3"/>
<path opacity="0.2" d="M59.6161 31.6875C59.6161 37.6827 57.8922 43.5434 54.6624 48.5282C51.4325 53.5131 46.8418 57.3983 41.4708 59.6926C36.0997 61.9869 30.1896 62.5872 24.4877 61.4176C18.7858 60.2479 13.5483 57.361 9.43753 53.1217C5.32672 48.8824 2.52722 43.4812 1.39304 37.6012C0.258872 31.7211 0.84097 25.6263 3.06573 20.0874C5.29049 14.5485 9.05798 9.81436 13.8918 6.48358C18.7256 3.1528 24.4086 1.375 30.2222 1.375V31.6875H59.6161Z" fill="url(#paint0_radial_22_27534)"/>
</g>
<path d="M23.1635 4.52084C17.3644 6.12326 12.2401 9.65421 8.58528 14.5661C4.93049 19.478 2.94946 25.4962 2.94946 31.6875H9.49492C9.49492 26.9821 11.0005 22.4082 13.7781 18.6752C16.5558 14.9422 20.4503 12.2587 24.8576 11.0408L23.1635 4.52084Z" fill="#FFCD39"/>
<circle cx="30.5555" cy="31.5217" r="7.65217" fill="#89A7A7" fill-opacity="0.32"/>
<path d="M25.4874 12.5176L32.156 30.4104C32.5305 31.4153 31.9585 32.5245 30.9226 32.8021C29.8867 33.0797 28.8367 32.4051 28.6586 31.3475L25.4874 12.5176Z" fill="#737C7B"/>
<circle cx="30.54" cy="31.3742" r="1.91304" transform="rotate(-15 30.54 31.3742)" fill="#737C7B"/>
<defs>
<radialGradient id="paint0_radial_22_27534" cx="0" cy="0" r="1" gradientUnits="userSpaceOnUse" gradientTransform="translate(30.2222 31.6875) rotate(90) scale(30.3125 29.3939)">
<stop offset="0.785075" stop-color="#C8D2D1" stop-opacity="0"/>
<stop offset="1" stop-color="#C8D2D1"/>
</radialGradient>
<clipPath id="clip0_22_27534">
<rect width="60" height="30.9375" fill="white" transform="translate(0.222168 0.75)"/>
</clipPath>
</defs>
</svg>
