<svg width="799" height="585" viewBox="0 0 799 585" fill="none" xmlns="http://www.w3.org/2000/svg">
<g opacity="0.3">
<path d="M312.511 60.454C316.476 53.362 319.434 48.0731 322.215 44.0358C324.991 40.007 327.571 37.2556 330.766 35.2279C333.868 33.2588 337.321 31.8003 340.895 30.95C344.576 30.0743 348.348 30.1433 353.171 30.9628C358.004 31.7841 363.858 33.352 371.706 35.455L521.795 75.6712C529.645 77.7745 535.496 79.3429 539.866 80.9874C544.234 82.6312 547.049 84.326 548.88 86.6392C550.667 88.8976 551.784 91.5408 552.156 94.3965C552.538 97.3216 551.789 100.521 549.922 104.799C548.053 109.078 545.098 114.366 541.132 121.459L465.303 257.083C461.338 264.175 458.38 269.464 455.598 273.501C452.822 277.53 450.242 280.281 447.048 282.309C443.946 284.278 440.492 285.737 436.918 286.587C433.237 287.463 429.466 287.394 424.643 286.574C419.809 285.753 413.956 284.185 406.107 282.082L256.018 241.866C248.169 239.763 242.318 238.194 237.948 236.55C233.579 234.906 230.764 233.211 228.933 230.898C227.146 228.64 226.03 225.996 225.657 223.141C225.276 220.215 226.024 217.016 227.892 212.738C229.76 208.459 232.716 203.171 236.682 196.078L312.511 60.454ZM486.71 525.108C482.745 532.2 479.787 537.489 477.005 541.526C474.229 545.555 471.649 548.307 468.455 550.334C465.353 552.303 461.899 553.762 458.325 554.612C454.644 555.488 450.873 555.419 446.05 554.599C441.216 553.778 435.363 552.21 427.514 550.107L277.426 509.891C269.576 507.788 263.725 506.219 259.355 504.575C254.986 502.931 252.171 501.236 250.341 498.923C248.553 496.665 247.437 494.021 247.064 491.166C246.683 488.241 247.431 485.041 249.299 480.763C251.167 476.484 254.123 471.197 258.089 464.104L333.918 328.479C337.883 321.387 340.841 316.098 343.622 312.061C346.398 308.032 348.978 305.281 352.173 303.253C355.275 301.284 358.728 299.825 362.303 298.975C365.983 298.099 369.755 298.168 374.578 298.988C379.411 299.809 385.265 301.377 393.113 303.48L543.202 343.696C551.052 345.8 556.903 347.368 561.273 349.012C565.641 350.656 568.457 352.351 570.287 354.664C572.074 356.923 573.191 359.566 573.563 362.422C573.945 365.347 573.196 368.546 571.329 372.824C569.46 377.103 566.505 382.391 562.539 389.484L486.71 525.108ZM512.778 221.416C516.743 214.324 519.701 209.035 522.483 204.998C525.258 200.969 527.839 198.218 531.033 196.19C534.135 194.221 537.589 192.762 541.163 191.912C544.844 191.036 548.615 191.105 553.439 191.924C558.272 192.746 564.126 194.314 571.974 196.417L618.566 208.901C626.415 211.004 632.266 212.573 636.636 214.217C641.005 215.861 643.82 217.556 645.65 219.869C647.438 222.127 648.554 224.77 648.927 227.626C649.308 230.551 648.56 233.751 646.692 238.028C644.824 242.307 641.869 247.595 637.903 254.688L614.251 296.993C610.286 304.085 607.328 309.374 604.547 313.411C601.771 317.44 599.19 320.192 595.996 322.22C592.894 324.189 589.441 325.647 585.866 326.498C582.186 327.373 578.414 327.304 573.591 326.485C568.757 325.663 562.904 324.096 555.055 321.993L508.463 309.508C500.614 307.405 494.763 305.837 490.393 304.192C486.025 302.548 483.209 300.854 481.379 298.541C479.592 296.282 478.475 293.639 478.103 290.783C477.721 287.858 478.469 284.659 480.337 280.381C482.205 276.102 485.161 270.815 489.126 263.722L512.778 221.416ZM286.442 364.146C282.477 371.238 279.519 376.527 276.738 380.564C273.962 384.593 271.382 387.345 268.188 389.372C265.086 391.342 261.632 392.8 258.058 393.651C254.377 394.526 250.605 394.457 245.782 393.638C240.948 392.816 235.095 391.248 227.246 389.145L180.655 376.661C172.805 374.558 166.954 372.99 162.584 371.345C158.216 369.701 155.401 368.007 153.57 365.693C151.783 363.435 150.667 360.792 150.294 357.936C149.912 355.011 150.661 351.811 152.528 347.534C154.396 343.255 157.352 337.967 161.318 330.875L184.97 288.569C188.935 281.477 191.892 276.188 194.674 272.151C197.45 268.122 200.03 265.37 203.224 263.343C206.326 261.373 209.78 259.915 213.354 259.065C217.035 258.189 220.806 258.258 225.63 259.077C230.463 259.899 236.317 261.467 244.165 263.57L290.757 276.054C298.607 278.157 304.458 279.725 308.828 281.37C313.196 283.014 316.011 284.708 317.842 287.022C319.629 289.28 320.745 291.923 321.118 294.779C321.5 297.704 320.751 300.904 318.884 305.181C317.015 309.46 314.06 314.748 310.094 321.841L286.442 364.146Z" stroke="white"/>
</g>
</svg>
