<svg width="17" height="16" viewBox="0 0 17 16" fill="none" xmlns="http://www.w3.org/2000/svg">
<g clip-path="url(#clip0_25_52761)">
<path d="M8.11072 14.9992C6.2542 14.9992 4.47372 14.2617 3.16097 12.9489C1.84822 11.6362 1.11072 9.85569 1.11072 7.99918C1.11072 6.14266 1.84822 4.36218 3.16097 3.04943C4.47372 1.73667 6.2542 0.999176 8.11072 0.999176C9.96723 0.999176 11.7477 1.73667 13.0605 3.04943C14.3732 4.36218 15.1107 6.14266 15.1107 7.99918C15.1107 9.85569 14.3732 11.6362 13.0605 12.9489C11.7477 14.2617 9.96723 14.9992 8.11072 14.9992ZM8.11072 15.9992C10.2324 15.9992 12.2673 15.1563 13.7676 13.656C15.2679 12.1557 16.1107 10.1209 16.1107 7.99918C16.1107 5.87744 15.2679 3.84261 13.7676 2.34232C12.2673 0.842031 10.2324 -0.000823975 8.11072 -0.000823975C5.98899 -0.000823975 3.95415 0.842031 2.45386 2.34232C0.953573 3.84261 0.110718 5.87744 0.110718 7.99918C0.110718 10.1209 0.953573 12.1557 2.45386 13.656C3.95415 15.1563 5.98899 15.9992 8.11072 15.9992Z" fill="#0D6EFD"/>
<path d="M8.11072 3.99918C8.24333 3.99918 8.3705 4.05185 8.46427 4.14562C8.55804 4.23939 8.61072 4.36657 8.61072 4.49918V7.49918H11.6107C11.7433 7.49918 11.8705 7.55185 11.9643 7.64562C12.058 7.73939 12.1107 7.86657 12.1107 7.99918C12.1107 8.13178 12.058 8.25896 11.9643 8.35273C11.8705 8.4465 11.7433 8.49918 11.6107 8.49918H8.61072V11.4992C8.61072 11.6318 8.55804 11.759 8.46427 11.8527C8.3705 11.9465 8.24333 11.9992 8.11072 11.9992C7.97811 11.9992 7.85093 11.9465 7.75716 11.8527C7.6634 11.759 7.61072 11.6318 7.61072 11.4992V8.49918H4.61072C4.47811 8.49918 4.35093 8.4465 4.25716 8.35273C4.1634 8.25896 4.11072 8.13178 4.11072 7.99918C4.11072 7.86657 4.1634 7.73939 4.25716 7.64562C4.35093 7.55185 4.47811 7.49918 4.61072 7.49918H7.61072V4.49918C7.61072 4.36657 7.6634 4.23939 7.75716 4.14562C7.85093 4.05185 7.97811 3.99918 8.11072 3.99918Z" fill="#0D6EFD"/>
</g>
<defs>
<clipPath id="clip0_25_52761">
<rect width="16" height="16" fill="white" transform="translate(0.111084)"/>
</clipPath>
</defs>
</svg>
