<svg width="14" height="14" viewBox="0 0 14 14" fill="none" xmlns="http://www.w3.org/2000/svg">
<path fill-rule="evenodd" clip-rule="evenodd" d="M4.06493 1.43941C4.10557 1.39867 4.15385 1.36635 4.207 1.34429C4.26016 1.32224 4.31714 1.31088 4.37468 1.31088C4.43223 1.31088 4.48921 1.32224 4.54236 1.34429C4.59551 1.36635 4.64379 1.39867 4.68443 1.43941L9.93443 6.68941C9.97518 6.73005 10.0075 6.77833 10.0296 6.83149C10.0516 6.88464 10.063 6.94162 10.063 6.99916C10.063 7.05671 10.0516 7.11369 10.0296 7.16684C10.0075 7.22 9.97518 7.26827 9.93443 7.30891L4.68443 12.5589C4.60228 12.6411 4.49086 12.6872 4.37468 12.6872C4.2585 12.6872 4.14708 12.6411 4.06493 12.5589C3.98278 12.4768 3.93663 12.3653 3.93663 12.2492C3.93663 12.133 3.98278 12.0216 4.06493 11.9394L9.00606 6.99916L4.06493 2.05891C4.02419 2.01827 3.99187 1.97 3.96981 1.91684C3.94775 1.86369 3.9364 1.80671 3.9364 1.74916C3.9364 1.69162 3.94775 1.63464 3.96981 1.58149C3.99187 1.52833 4.02419 1.48005 4.06493 1.43941V1.43941Z" fill="white" fill-opacity="0.7"/>
</svg>
