<svg width="17" height="16" viewBox="0 0 17 16" fill="none" xmlns="http://www.w3.org/2000/svg">
<g clip-path="url(#clip0_25_52706)">
<path d="M8.16626 14.9992C6.30974 14.9992 4.52927 14.2617 3.21651 12.9489C1.90376 11.6362 1.16626 9.85569 1.16626 7.99918C1.16626 6.14266 1.90376 4.36218 3.21651 3.04943C4.52927 1.73667 6.30974 0.999176 8.16626 0.999176C10.0228 0.999176 11.8033 1.73667 13.116 3.04943C14.4288 4.36218 15.1663 6.14266 15.1663 7.99918C15.1663 9.85569 14.4288 11.6362 13.116 12.9489C11.8033 14.2617 10.0228 14.9992 8.16626 14.9992ZM8.16626 15.9992C10.288 15.9992 12.3228 15.1563 13.8231 13.656C15.3234 12.1557 16.1663 10.1209 16.1663 7.99918C16.1663 5.87744 15.3234 3.84261 13.8231 2.34232C12.3228 0.842031 10.288 -0.000823975 8.16626 -0.000823975C6.04453 -0.000823975 4.0097 0.842031 2.50941 2.34232C1.00911 3.84261 0.16626 5.87744 0.16626 7.99918C0.16626 10.1209 1.00911 12.1557 2.50941 13.656C4.0097 15.1563 6.04453 15.9992 8.16626 15.9992Z" fill="black"/>
<path d="M8.16626 3.99918C8.29887 3.99918 8.42605 4.05185 8.51981 4.14562C8.61358 4.23939 8.66626 4.36657 8.66626 4.49918V7.49918H11.6663C11.7989 7.49918 11.926 7.55185 12.0198 7.64562C12.1136 7.73939 12.1663 7.86657 12.1663 7.99918C12.1663 8.13178 12.1136 8.25896 12.0198 8.35273C11.926 8.4465 11.7989 8.49918 11.6663 8.49918H8.66626V11.4992C8.66626 11.6318 8.61358 11.759 8.51981 11.8527C8.42605 11.9465 8.29887 11.9992 8.16626 11.9992C8.03365 11.9992 7.90647 11.9465 7.81271 11.8527C7.71894 11.759 7.66626 11.6318 7.66626 11.4992V8.49918H4.66626C4.53365 8.49918 4.40647 8.4465 4.31271 8.35273C4.21894 8.25896 4.16626 8.13178 4.16626 7.99918C4.16626 7.86657 4.21894 7.73939 4.31271 7.64562C4.40647 7.55185 4.53365 7.49918 4.66626 7.49918H7.66626V4.49918C7.66626 4.36657 7.71894 4.23939 7.81271 4.14562C7.90647 4.05185 8.03365 3.99918 8.16626 3.99918Z" fill="black"/>
</g>
<defs>
<clipPath id="clip0_25_52706">
<rect width="16" height="16" fill="white" transform="translate(0.166626)"/>
</clipPath>
</defs>
</svg>
