<svg width="16" height="16" viewBox="0 0 16 16" fill="none" xmlns="http://www.w3.org/2000/svg">
<path fill-rule="evenodd" clip-rule="evenodd" d="M13.8537 2.14518C13.9002 2.19163 13.9372 2.24681 13.9624 2.30755C13.9876 2.3683 14.0006 2.43342 14.0006 2.49918C14.0006 2.56495 13.9876 2.63007 13.9624 2.69082C13.9372 2.75156 13.9002 2.80674 13.8537 2.85318L2.85367 13.8532C2.75979 13.9471 2.63245 13.9998 2.49967 13.9998C2.3669 13.9998 2.23956 13.9471 2.14567 13.8532C2.05179 13.7593 1.99904 13.632 1.99904 13.4992C1.99904 13.3664 2.05179 13.2391 2.14567 13.1452L13.1457 2.14518C13.1921 2.09862 13.2473 2.06168 13.308 2.03647C13.3688 2.01127 13.4339 1.99829 13.4997 1.99829C13.5654 1.99829 13.6306 2.01127 13.6913 2.03647C13.7521 2.06168 13.8072 2.09862 13.8537 2.14518Z" fill="#6C757D"/>
<path fill-rule="evenodd" clip-rule="evenodd" d="M2.14567 2.14518C2.09911 2.19163 2.06217 2.24681 2.03696 2.30755C2.01175 2.3683 1.99878 2.43342 1.99878 2.49918C1.99878 2.56495 2.01175 2.63007 2.03696 2.69082C2.06217 2.75156 2.09911 2.80674 2.14567 2.85318L13.1457 13.8532C13.2396 13.9471 13.3669 13.9998 13.4997 13.9998C13.6324 13.9998 13.7598 13.9471 13.8537 13.8532C13.9476 13.7593 14.0003 13.632 14.0003 13.4992C14.0003 13.3664 13.9476 13.2391 13.8537 13.1452L2.85367 2.14518C2.80723 2.09862 2.75205 2.06168 2.69131 2.03647C2.63056 2.01127 2.56544 1.99829 2.49967 1.99829C2.43391 1.99829 2.36878 2.01127 2.30804 2.03647C2.24729 2.06168 2.19212 2.09862 2.14567 2.14518Z" fill="#6C757D"/>
</svg>
