<svg width="14" height="14" viewBox="0 0 14 14" fill="none" xmlns="http://www.w3.org/2000/svg">
<path fill-rule="evenodd" clip-rule="evenodd" d="M4.06493 1.43943C4.10557 1.39869 4.15385 1.36636 4.207 1.34431C4.26016 1.32225 4.31714 1.3109 4.37468 1.3109C4.43223 1.3109 4.48921 1.32225 4.54236 1.34431C4.59551 1.36636 4.64379 1.39869 4.68443 1.43943L9.93443 6.68943C9.97518 6.73007 10.0075 6.77835 10.0296 6.8315C10.0516 6.88465 10.063 6.94163 10.063 6.99918C10.063 7.05673 10.0516 7.11371 10.0296 7.16686C10.0075 7.22001 9.97518 7.26829 9.93443 7.30893L4.68443 12.5589C4.60228 12.6411 4.49086 12.6872 4.37468 12.6872C4.2585 12.6872 4.14708 12.6411 4.06493 12.5589C3.98278 12.4768 3.93663 12.3654 3.93663 12.2492C3.93663 12.133 3.98278 12.0216 4.06493 11.9394L9.00606 6.99918L4.06493 2.05893C4.02419 2.01829 3.99187 1.97001 3.96981 1.91686C3.94775 1.86371 3.9364 1.80673 3.9364 1.74918C3.9364 1.69163 3.94775 1.63465 3.96981 1.5815C3.99187 1.52835 4.02419 1.48007 4.06493 1.43943V1.43943Z" fill="white" fill-opacity="0.7"/>
</svg>
