<svg width="16" height="16" viewBox="0 0 16 16" fill="none" xmlns="http://www.w3.org/2000/svg">
<g clip-path="url(#clip0_25_52569)">
<path d="M13.9996 0.999176C14.2649 0.999176 14.5192 1.10453 14.7067 1.29207C14.8943 1.47961 14.9996 1.73396 14.9996 1.99918V13.9992C14.9996 14.2644 14.8943 14.5187 14.7067 14.7063C14.5192 14.8938 14.2649 14.9992 13.9996 14.9992H1.99963C1.73442 14.9992 1.48006 14.8938 1.29253 14.7063C1.10499 14.5187 0.999634 14.2644 0.999634 13.9992V1.99918C0.999634 1.73396 1.10499 1.47961 1.29253 1.29207C1.48006 1.10453 1.73442 0.999176 1.99963 0.999176H13.9996ZM1.99963 -0.000823975C1.4692 -0.000823975 0.960493 0.20989 0.58542 0.584962C0.210348 0.960035 -0.000366211 1.46874 -0.000366211 1.99918V13.9992C-0.000366211 14.5296 0.210348 15.0383 0.58542 15.4134C0.960493 15.7885 1.4692 15.9992 1.99963 15.9992H13.9996C14.5301 15.9992 15.0388 15.7885 15.4138 15.4134C15.7889 15.0383 15.9996 14.5296 15.9996 13.9992V1.99918C15.9996 1.46874 15.7889 0.960035 15.4138 0.584962C15.0388 0.20989 14.5301 -0.000823975 13.9996 -0.000823975H1.99963Z" fill="black"/>
<path d="M7.99963 3.99918C8.13224 3.99918 8.25942 4.05185 8.35319 4.14562C8.44696 4.23939 8.49963 4.36657 8.49963 4.49918V7.49918H11.4996C11.6322 7.49918 11.7594 7.55185 11.8532 7.64562C11.947 7.73939 11.9996 7.86657 11.9996 7.99918C11.9996 8.13178 11.947 8.25896 11.8532 8.35273C11.7594 8.4465 11.6322 8.49918 11.4996 8.49918H8.49963V11.4992C8.49963 11.6318 8.44696 11.759 8.35319 11.8527C8.25942 11.9465 8.13224 11.9992 7.99963 11.9992C7.86703 11.9992 7.73985 11.9465 7.64608 11.8527C7.55231 11.759 7.49963 11.6318 7.49963 11.4992V8.49918H4.49963C4.36703 8.49918 4.23985 8.4465 4.14608 8.35273C4.05231 8.25896 3.99963 8.13178 3.99963 7.99918C3.99963 7.86657 4.05231 7.73939 4.14608 7.64562C4.23985 7.55185 4.36703 7.49918 4.49963 7.49918H7.49963V4.49918C7.49963 4.36657 7.55231 4.23939 7.64608 4.14562C7.73985 4.05185 7.86703 3.99918 7.99963 3.99918Z" fill="black"/>
</g>
<defs>
<clipPath id="clip0_25_52569">
<rect width="16" height="16" fill="white"/>
</clipPath>
</defs>
</svg>
