<svg width="17" height="16" viewBox="0 0 17 16" fill="none" xmlns="http://www.w3.org/2000/svg">
<g clip-path="url(#clip0_25_52804)">
<path d="M8.66626 14.9992C6.80974 14.9992 5.02927 14.2617 3.71651 12.9489C2.40376 11.6362 1.66626 9.85569 1.66626 7.99918C1.66626 6.14266 2.40376 4.36218 3.71651 3.04943C5.02927 1.73667 6.80974 0.999176 8.66626 0.999176C10.5228 0.999176 12.3033 1.73667 13.616 3.04943C14.9288 4.36218 15.6663 6.14266 15.6663 7.99918C15.6663 9.85569 14.9288 11.6362 13.616 12.9489C12.3033 14.2617 10.5228 14.9992 8.66626 14.9992ZM8.66626 15.9992C10.788 15.9992 12.8228 15.1563 14.3231 13.656C15.8234 12.1557 16.6663 10.1209 16.6663 7.99918C16.6663 5.87744 15.8234 3.84261 14.3231 2.34232C12.8228 0.842031 10.788 -0.000823975 8.66626 -0.000823975C6.54453 -0.000823975 4.5097 0.842031 3.00941 2.34232C1.50911 3.84261 0.66626 5.87744 0.66626 7.99918C0.66626 10.1209 1.50911 12.1557 3.00941 13.656C4.5097 15.1563 6.54453 15.9992 8.66626 15.9992Z" fill="black"/>
<path d="M8.66626 3.99918C8.79887 3.99918 8.92605 4.05185 9.01981 4.14562C9.11358 4.23939 9.16626 4.36657 9.16626 4.49918V7.49918H12.1663C12.2989 7.49918 12.426 7.55185 12.5198 7.64562C12.6136 7.73939 12.6663 7.86657 12.6663 7.99918C12.6663 8.13178 12.6136 8.25896 12.5198 8.35273C12.426 8.4465 12.2989 8.49918 12.1663 8.49918H9.16626V11.4992C9.16626 11.6318 9.11358 11.759 9.01981 11.8527C8.92605 11.9465 8.79887 11.9992 8.66626 11.9992C8.53365 11.9992 8.40647 11.9465 8.31271 11.8527C8.21894 11.759 8.16626 11.6318 8.16626 11.4992V8.49918H5.16626C5.03365 8.49918 4.90647 8.4465 4.81271 8.35273C4.71894 8.25896 4.66626 8.13178 4.66626 7.99918C4.66626 7.86657 4.71894 7.73939 4.81271 7.64562C4.90647 7.55185 5.03365 7.49918 5.16626 7.49918H8.16626V4.49918C8.16626 4.36657 8.21894 4.23939 8.31271 4.14562C8.40647 4.05185 8.53365 3.99918 8.66626 3.99918Z" fill="black"/>
</g>
<defs>
<clipPath id="clip0_25_52804">
<rect width="16" height="16" fill="white" transform="translate(0.666626)"/>
</clipPath>
</defs>
</svg>
