<svg width="16" height="16" viewBox="0 0 16 16" fill="none" xmlns="http://www.w3.org/2000/svg">
<g clip-path="url(#clip0_25_52856)">
<path d="M7.99976 14.9992C6.14324 14.9992 4.36276 14.2617 3.05001 12.9489C1.73725 11.6362 0.999756 9.85569 0.999756 7.99918C0.999756 6.14266 1.73725 4.36218 3.05001 3.04943C4.36276 1.73667 6.14324 0.999176 7.99976 0.999176C9.85627 0.999176 11.6367 1.73667 12.9495 3.04943C14.2623 4.36218 14.9998 6.14266 14.9998 7.99918C14.9998 9.85569 14.2623 11.6362 12.9495 12.9489C11.6367 14.2617 9.85627 14.9992 7.99976 14.9992ZM7.99976 15.9992C10.1215 15.9992 12.1563 15.1563 13.6566 13.656C15.1569 12.1557 15.9998 10.1209 15.9998 7.99918C15.9998 5.87744 15.1569 3.84261 13.6566 2.34232C12.1563 0.842031 10.1215 -0.000823975 7.99976 -0.000823975C5.87802 -0.000823975 3.84319 0.842031 2.3429 2.34232C0.842611 3.84261 -0.000244141 5.87744 -0.000244141 7.99918C-0.000244141 10.1209 0.842611 12.1557 2.3429 13.656C3.84319 15.1563 5.87802 15.9992 7.99976 15.9992Z" fill="white"/>
<path d="M7.99976 3.99918C8.13236 3.99918 8.25954 4.05185 8.35331 4.14562C8.44708 4.23939 8.49976 4.36657 8.49976 4.49918V7.49918H11.4998C11.6324 7.49918 11.7595 7.55185 11.8533 7.64562C11.9471 7.73939 11.9998 7.86657 11.9998 7.99918C11.9998 8.13178 11.9471 8.25896 11.8533 8.35273C11.7595 8.4465 11.6324 8.49918 11.4998 8.49918H8.49976V11.4992C8.49976 11.6318 8.44708 11.759 8.35331 11.8527C8.25954 11.9465 8.13236 11.9992 7.99976 11.9992C7.86715 11.9992 7.73997 11.9465 7.6462 11.8527C7.55243 11.759 7.49976 11.6318 7.49976 11.4992V8.49918H4.49976C4.36715 8.49918 4.23997 8.4465 4.1462 8.35273C4.05243 8.25896 3.99976 8.13178 3.99976 7.99918C3.99976 7.86657 4.05243 7.73939 4.1462 7.64562C4.23997 7.55185 4.36715 7.49918 4.49976 7.49918H7.49976V4.49918C7.49976 4.36657 7.55243 4.23939 7.6462 4.14562C7.73997 4.05185 7.86715 3.99918 7.99976 3.99918Z" fill="white"/>
</g>
<defs>
<clipPath id="clip0_25_52856">
<rect width="16" height="16" fill="white"/>
</clipPath>
</defs>
</svg>
