<svg width="16" height="16" viewBox="0 0 16 16" fill="none" xmlns="http://www.w3.org/2000/svg">
<g clip-path="url(#clip0_25_22633)">
<path d="M12.1456 0.145551C12.192 0.0989878 12.2472 0.0620449 12.3079 0.0368385C12.3687 0.011632 12.4338 -0.00134277 12.4996 -0.00134277C12.5653 -0.00134277 12.6305 0.011632 12.6912 0.0368385C12.7519 0.0620449 12.8071 0.0989878 12.8536 0.145551L15.8536 3.14555C15.9001 3.192 15.9371 3.24717 15.9623 3.30792C15.9875 3.36866 16.0005 3.43378 16.0005 3.49955C16.0005 3.56532 15.9875 3.63044 15.9623 3.69118C15.9371 3.75193 15.9001 3.80711 15.8536 3.85355L5.85356 13.8536C5.80558 13.9012 5.74842 13.9386 5.68556 13.9636L0.685562 15.9636C0.594698 15.9999 0.495158 16.0088 0.399281 15.9892C0.303405 15.9695 0.215409 15.9221 0.146203 15.8529C0.0769962 15.7837 0.0296227 15.6957 0.00995522 15.5998C-0.00971224 15.504 -0.000808734 15.4044 0.0355619 15.3136L2.03556 10.3136C2.06049 10.2507 2.09791 10.1935 2.14556 10.1456L12.1456 0.145551ZM11.2066 2.49955L13.4996 4.79255L14.7926 3.49955L12.4996 1.20655L11.2066 2.49955ZM12.7926 5.49955L10.4996 3.20655L3.99956 9.70655V9.99955H4.49956C4.63217 9.99955 4.75935 10.0522 4.85312 10.146C4.94688 10.2398 4.99956 10.3669 4.99956 10.4996V10.9996H5.49956C5.63217 10.9996 5.75935 11.0522 5.85312 11.146C5.94688 11.2398 5.99956 11.3669 5.99956 11.4996V11.9996H6.29256L12.7926 5.49955ZM3.03156 10.6746L2.92556 10.7806L1.39756 14.6016L5.21856 13.0736L5.32456 12.9676C5.22918 12.9319 5.14695 12.868 5.08888 12.7844C5.0308 12.7007 4.99964 12.6014 4.99956 12.4996V11.9996H4.49956C4.36695 11.9996 4.23978 11.9469 4.14601 11.8531C4.05224 11.7593 3.99956 11.6322 3.99956 11.4996V10.9996H3.49956C3.39774 10.9995 3.29837 10.9683 3.21474 10.9102C3.13111 10.8522 3.0672 10.7699 3.03156 10.6746Z" fill="#6C757D"/>
</g>
<defs>
<clipPath id="clip0_25_22633">
<rect width="16" height="16" fill="white" transform="translate(0 0.000366211)"/>
</clipPath>
</defs>
</svg>
