<svg width="17" height="16" viewBox="0 0 17 16" fill="none" xmlns="http://www.w3.org/2000/svg">
<g clip-path="url(#clip0_25_52823)">
<path d="M14.4996 0.999176C14.7649 0.999176 15.0192 1.10453 15.2067 1.29207C15.3943 1.47961 15.4996 1.73396 15.4996 1.99918V13.9992C15.4996 14.2644 15.3943 14.5187 15.2067 14.7063C15.0192 14.8938 14.7649 14.9992 14.4996 14.9992H2.49963C2.23442 14.9992 1.98006 14.8938 1.79253 14.7063C1.60499 14.5187 1.49963 14.2644 1.49963 13.9992V1.99918C1.49963 1.73396 1.60499 1.47961 1.79253 1.29207C1.98006 1.10453 2.23442 0.999176 2.49963 0.999176H14.4996ZM2.49963 -0.000823975C1.9692 -0.000823975 1.46049 0.20989 1.08542 0.584962C0.710348 0.960035 0.499634 1.46874 0.499634 1.99918V13.9992C0.499634 14.5296 0.710348 15.0383 1.08542 15.4134C1.46049 15.7885 1.9692 15.9992 2.49963 15.9992H14.4996C15.0301 15.9992 15.5388 15.7885 15.9138 15.4134C16.2889 15.0383 16.4996 14.5296 16.4996 13.9992V1.99918C16.4996 1.46874 16.2889 0.960035 15.9138 0.584962C15.5388 0.20989 15.0301 -0.000823975 14.4996 -0.000823975H2.49963Z" fill="black"/>
<path d="M8.49963 3.99918C8.63224 3.99918 8.75942 4.05185 8.85319 4.14562C8.94696 4.23939 8.99963 4.36657 8.99963 4.49918V7.49918H11.9996C12.1322 7.49918 12.2594 7.55185 12.3532 7.64562C12.447 7.73939 12.4996 7.86657 12.4996 7.99918C12.4996 8.13178 12.447 8.25896 12.3532 8.35273C12.2594 8.4465 12.1322 8.49918 11.9996 8.49918H8.99963V11.4992C8.99963 11.6318 8.94696 11.759 8.85319 11.8527C8.75942 11.9465 8.63224 11.9992 8.49963 11.9992C8.36703 11.9992 8.23985 11.9465 8.14608 11.8527C8.05231 11.759 7.99963 11.6318 7.99963 11.4992V8.49918H4.99963C4.86703 8.49918 4.73985 8.4465 4.64608 8.35273C4.55231 8.25896 4.49963 8.13178 4.49963 7.99918C4.49963 7.86657 4.55231 7.73939 4.64608 7.64562C4.73985 7.55185 4.86703 7.49918 4.99963 7.49918H7.99963V4.49918C7.99963 4.36657 8.05231 4.23939 8.14608 4.14562C8.23985 4.05185 8.36703 3.99918 8.49963 3.99918Z" fill="black"/>
</g>
<defs>
<clipPath id="clip0_25_52823">
<rect width="16" height="16" fill="white" transform="translate(0.5)"/>
</clipPath>
</defs>
</svg>
