<svg width="16" height="16" viewBox="0 0 16 16" fill="none" xmlns="http://www.w3.org/2000/svg">
<g clip-path="url(#clip0_25_52580)">
<path d="M7.99963 14.9992C6.14312 14.9992 4.36264 14.2617 3.04989 12.9489C1.73713 11.6362 0.999634 9.85569 0.999634 7.99918C0.999634 6.14266 1.73713 4.36218 3.04989 3.04943C4.36264 1.73667 6.14312 0.999176 7.99963 0.999176C9.85615 0.999176 11.6366 1.73667 12.9494 3.04943C14.2621 4.36218 14.9996 6.14266 14.9996 7.99918C14.9996 9.85569 14.2621 11.6362 12.9494 12.9489C11.6366 14.2617 9.85615 14.9992 7.99963 14.9992ZM7.99963 15.9992C10.1214 15.9992 12.1562 15.1563 13.6565 13.656C15.1568 12.1557 15.9996 10.1209 15.9996 7.99918C15.9996 5.87744 15.1568 3.84261 13.6565 2.34232C12.1562 0.842031 10.1214 -0.000823975 7.99963 -0.000823975C5.8779 -0.000823975 3.84307 0.842031 2.34278 2.34232C0.842489 3.84261 -0.000366211 5.87744 -0.000366211 7.99918C-0.000366211 10.1209 0.842489 12.1557 2.34278 13.656C3.84307 15.1563 5.8779 15.9992 7.99963 15.9992Z" fill="black"/>
<path d="M7.99963 3.99918C8.13224 3.99918 8.25942 4.05185 8.35319 4.14562C8.44696 4.23939 8.49963 4.36657 8.49963 4.49918V7.49918H11.4996C11.6322 7.49918 11.7594 7.55185 11.8532 7.64562C11.947 7.73939 11.9996 7.86657 11.9996 7.99918C11.9996 8.13178 11.947 8.25896 11.8532 8.35273C11.7594 8.4465 11.6322 8.49918 11.4996 8.49918H8.49963V11.4992C8.49963 11.6318 8.44696 11.759 8.35319 11.8527C8.25942 11.9465 8.13224 11.9992 7.99963 11.9992C7.86703 11.9992 7.73985 11.9465 7.64608 11.8527C7.55231 11.759 7.49963 11.6318 7.49963 11.4992V8.49918H4.49963C4.36703 8.49918 4.23985 8.4465 4.14608 8.35273C4.05231 8.25896 3.99963 8.13178 3.99963 7.99918C3.99963 7.86657 4.05231 7.73939 4.14608 7.64562C4.23985 7.55185 4.36703 7.49918 4.49963 7.49918H7.49963V4.49918C7.49963 4.36657 7.55231 4.23939 7.64608 4.14562C7.73985 4.05185 7.86703 3.99918 7.99963 3.99918Z" fill="black"/>
</g>
<defs>
<clipPath id="clip0_25_52580">
<rect width="16" height="16" fill="white"/>
</clipPath>
</defs>
</svg>
