<svg width="17" height="16" viewBox="0 0 17 16" fill="none" xmlns="http://www.w3.org/2000/svg">
<path fill-rule="evenodd" clip-rule="evenodd" d="M8.33301 1.99918C8.46562 1.99918 8.59279 2.05185 8.68656 2.14562C8.78033 2.23939 8.83301 2.36657 8.83301 2.49918V7.49918H13.833C13.9656 7.49918 14.0928 7.55185 14.1866 7.64562C14.2803 7.73939 14.333 7.86657 14.333 7.99918C14.333 8.13178 14.2803 8.25896 14.1866 8.35273C14.0928 8.4465 13.9656 8.49918 13.833 8.49918H8.83301V13.4992C8.83301 13.6318 8.78033 13.759 8.68656 13.8527C8.59279 13.9465 8.46562 13.9992 8.33301 13.9992C8.2004 13.9992 8.07322 13.9465 7.97945 13.8527C7.88569 13.759 7.83301 13.6318 7.83301 13.4992V8.49918H2.83301C2.7004 8.49918 2.57322 8.4465 2.47945 8.35273C2.38569 8.25896 2.33301 8.13178 2.33301 7.99918C2.33301 7.86657 2.38569 7.73939 2.47945 7.64562C2.57322 7.55185 2.7004 7.49918 2.83301 7.49918H7.83301V2.49918C7.83301 2.36657 7.88569 2.23939 7.97945 2.14562C8.07322 2.05185 8.2004 1.99918 8.33301 1.99918Z" fill="black"/>
</svg>
