<svg width="17" height="16" viewBox="0 0 17 16" fill="none" xmlns="http://www.w3.org/2000/svg">
<g clip-path="url(#clip0_25_52793)">
<path d="M14.6663 0.999176C14.9315 0.999176 15.1858 1.10453 15.3734 1.29207C15.5609 1.47961 15.6663 1.73396 15.6663 1.99918V13.9992C15.6663 14.2644 15.5609 14.5187 15.3734 14.7063C15.1858 14.8938 14.9315 14.9992 14.6663 14.9992H2.66626C2.40104 14.9992 2.14669 14.8938 1.95915 14.7063C1.77162 14.5187 1.66626 14.2644 1.66626 13.9992V1.99918C1.66626 1.73396 1.77162 1.47961 1.95915 1.29207C2.14669 1.10453 2.40104 0.999176 2.66626 0.999176H14.6663ZM2.66626 -0.000823975C2.13583 -0.000823975 1.62712 0.20989 1.25205 0.584962C0.876973 0.960035 0.66626 1.46874 0.66626 1.99918V13.9992C0.66626 14.5296 0.876973 15.0383 1.25205 15.4134C1.62712 15.7885 2.13583 15.9992 2.66626 15.9992H14.6663C15.1967 15.9992 15.7054 15.7885 16.0805 15.4134C16.4555 15.0383 16.6663 14.5296 16.6663 13.9992V1.99918C16.6663 1.46874 16.4555 0.960035 16.0805 0.584962C15.7054 0.20989 15.1967 -0.000823975 14.6663 -0.000823975H2.66626Z" fill="black"/>
<path d="M8.66626 3.99918C8.79887 3.99918 8.92605 4.05185 9.01981 4.14562C9.11358 4.23939 9.16626 4.36657 9.16626 4.49918V7.49918H12.1663C12.2989 7.49918 12.426 7.55185 12.5198 7.64562C12.6136 7.73939 12.6663 7.86657 12.6663 7.99918C12.6663 8.13178 12.6136 8.25896 12.5198 8.35273C12.426 8.4465 12.2989 8.49918 12.1663 8.49918H9.16626V11.4992C9.16626 11.6318 9.11358 11.759 9.01981 11.8527C8.92605 11.9465 8.79887 11.9992 8.66626 11.9992C8.53365 11.9992 8.40647 11.9465 8.31271 11.8527C8.21894 11.759 8.16626 11.6318 8.16626 11.4992V8.49918H5.16626C5.03365 8.49918 4.90647 8.4465 4.81271 8.35273C4.71894 8.25896 4.66626 8.13178 4.66626 7.99918C4.66626 7.86657 4.71894 7.73939 4.81271 7.64562C4.90647 7.55185 5.03365 7.49918 5.16626 7.49918H8.16626V4.49918C8.16626 4.36657 8.21894 4.23939 8.31271 4.14562C8.40647 4.05185 8.53365 3.99918 8.66626 3.99918Z" fill="black"/>
</g>
<defs>
<clipPath id="clip0_25_52793">
<rect width="16" height="16" fill="white" transform="translate(0.666626)"/>
</clipPath>
</defs>
</svg>
