<svg width="16" height="16" viewBox="0 0 16 16" fill="none" xmlns="http://www.w3.org/2000/svg">
<path d="M2.99976 9.49921C2.60193 9.49921 2.2204 9.34117 1.9391 9.05987C1.65779 8.77856 1.49976 8.39703 1.49976 7.99921C1.49976 7.60138 1.65779 7.21985 1.9391 6.93855C2.2204 6.65724 2.60193 6.49921 2.99976 6.49921C3.39758 6.49921 3.77911 6.65724 4.06042 6.93855C4.34172 7.21985 4.49976 7.60138 4.49976 7.99921C4.49976 8.39703 4.34172 8.77856 4.06042 9.05987C3.77911 9.34117 3.39758 9.49921 2.99976 9.49921ZM7.99976 9.49921C7.60193 9.49921 7.2204 9.34117 6.9391 9.05987C6.65779 8.77856 6.49976 8.39703 6.49976 7.99921C6.49976 7.60138 6.65779 7.21985 6.9391 6.93855C7.2204 6.65724 7.60193 6.49921 7.99976 6.49921C8.39758 6.49921 8.77911 6.65724 9.06042 6.93855C9.34172 7.21985 9.49976 7.60138 9.49976 7.99921C9.49976 8.39703 9.34172 8.77856 9.06042 9.05987C8.77911 9.34117 8.39758 9.49921 7.99976 9.49921ZM12.9998 9.49921C12.6019 9.49921 12.2204 9.34117 11.9391 9.05987C11.6578 8.77856 11.4998 8.39703 11.4998 7.99921C11.4998 7.60138 11.6578 7.21985 11.9391 6.93855C12.2204 6.65724 12.6019 6.49921 12.9998 6.49921C13.3976 6.49921 13.7791 6.65724 14.0604 6.93855C14.3417 7.21985 14.4998 7.60138 14.4998 7.99921C14.4998 8.39703 14.3417 8.77856 14.0604 9.05987C13.7791 9.34117 13.3976 9.49921 12.9998 9.49921Z" fill="#6C757D"/>
</svg>
