<svg width="14" height="14" viewBox="0 0 14 14" fill="none" xmlns="http://www.w3.org/2000/svg">
<g clip-path="url(#clip0_9_208007)">
<path d="M6.99968 4.15901C6.6267 4.15901 6.25736 4.23247 5.91277 4.37521C5.56817 4.51794 5.25507 4.72716 4.99132 4.9909C4.72758 5.25464 4.51837 5.56775 4.37564 5.91234C4.2329 6.25694 4.15943 6.62627 4.15943 6.99926C4.15943 7.37224 4.2329 7.74158 4.37564 8.08617C4.51837 8.43077 4.72758 8.74388 4.99132 9.00762C5.25507 9.27136 5.56817 9.48057 5.91277 9.62331C6.25736 9.76604 6.6267 9.83951 6.99968 9.83951C7.75297 9.83951 8.47539 9.54027 9.00805 9.00762C9.5407 8.47497 9.83994 7.75254 9.83994 6.99926C9.83994 6.24598 9.5407 5.52355 9.00805 4.9909C8.47539 4.45825 7.75297 4.15901 6.99968 4.15901ZM5.03443 6.99926C5.03443 6.47804 5.24149 5.97817 5.61004 5.60962C5.9786 5.24106 6.47847 5.03401 6.99968 5.03401C7.5209 5.03401 8.02077 5.24106 8.38933 5.60962C8.75788 5.97817 8.96494 6.47804 8.96494 6.99926C8.96494 7.52047 8.75788 8.02034 8.38933 8.3889C8.02077 8.75745 7.5209 8.96451 6.99968 8.96451C6.47847 8.96451 5.9786 8.75745 5.61004 8.3889C5.24149 8.02034 5.03443 7.52047 5.03443 6.99926Z" fill="#495057"/>
<path d="M8.57118 1.17438C8.11006 -0.391868 5.88931 -0.391868 5.42818 1.17438L5.34593 1.45351C5.31373 1.56284 5.25747 1.66358 5.18127 1.74835C5.10508 1.83311 5.01088 1.89975 4.90558 1.94338C4.80029 1.98701 4.68656 2.00652 4.57274 2.00049C4.45893 1.99445 4.3479 1.96302 4.24781 1.90851L3.99231 1.76851C2.55731 0.988007 0.988435 2.55776 1.76981 3.99188L1.90893 4.24738C1.96345 4.34748 1.99488 4.4585 2.00091 4.57232C2.00695 4.68613 1.98743 4.79986 1.94381 4.90516C1.90018 5.01045 1.83354 5.10465 1.74877 5.18085C1.66401 5.25704 1.56327 5.3133 1.45393 5.34551L1.17481 5.42776C-0.39144 5.88888 -0.39144 8.10963 1.17481 8.57076L1.45393 8.65301C1.56327 8.68521 1.66401 8.74147 1.74877 8.81767C1.83354 8.89386 1.90018 8.98806 1.94381 9.09336C1.98743 9.19865 2.00695 9.31238 2.00091 9.4262C1.99488 9.54001 1.96345 9.65104 1.90893 9.75113L1.76893 10.0066C0.988435 11.4416 2.55731 13.0114 3.99231 12.2291L4.24781 12.09C4.3479 12.0355 4.45893 12.0041 4.57274 11.998C4.68656 11.992 4.80029 12.0115 4.90558 12.0551C5.01088 12.0988 5.10508 12.1654 5.18127 12.2502C5.25747 12.3349 5.31373 12.4357 5.34593 12.545L5.42818 12.8241C5.88931 14.3904 8.11006 14.3904 8.57118 12.8241L8.65344 12.545C8.68564 12.4357 8.7419 12.3349 8.8181 12.2502C8.89429 12.1654 8.98849 12.0988 9.09379 12.0551C9.19908 12.0115 9.31281 11.992 9.42662 11.998C9.54044 12.0041 9.65147 12.0355 9.75156 12.09L10.0071 12.23C11.4421 13.0114 13.0118 11.4408 12.2296 10.0066L12.0904 9.75113C12.0359 9.65104 12.0045 9.54001 11.9985 9.4262C11.9924 9.31238 12.0119 9.19865 12.0556 9.09336C12.0992 8.98806 12.1658 8.89386 12.2506 8.81767C12.3354 8.74147 12.4361 8.68521 12.5454 8.65301L12.8246 8.57076C14.3908 8.10963 14.3908 5.88888 12.8246 5.42776L12.5454 5.34551C12.4361 5.3133 12.3354 5.25704 12.2506 5.18085C12.1658 5.10465 12.0992 5.01045 12.0556 4.90516C12.0119 4.79986 11.9924 4.68613 11.9985 4.57232C12.0045 4.4585 12.0359 4.34748 12.0904 4.24738L12.2304 3.99188C13.0118 2.55688 11.4412 0.988007 10.0071 1.76938L9.75156 1.90851C9.65147 1.96302 9.54044 1.99445 9.42662 2.00049C9.31281 2.00652 9.19908 1.98701 9.09379 1.94338C8.98849 1.89975 8.89429 1.83311 8.8181 1.74835C8.7419 1.66358 8.68564 1.56284 8.65344 1.45351L8.57118 1.17438ZM6.26731 1.42201C6.48256 0.691382 7.51681 0.691382 7.73206 1.42201L7.81431 1.70113C7.88345 1.93571 8.00422 2.15183 8.16774 2.33367C8.33127 2.5155 8.53342 2.65844 8.75938 2.75199C8.98533 2.84554 9.22935 2.88734 9.47356 2.87432C9.71776 2.86131 9.95596 2.7938 10.1707 2.67676L10.4253 2.53676C11.0938 2.17363 11.8253 2.90426 11.4613 3.57363L11.3222 3.82913C11.2053 4.04388 11.138 4.28206 11.1251 4.52621C11.1122 4.77036 11.1541 5.01429 11.2478 5.24014C11.3414 5.46599 11.4844 5.66803 11.6662 5.83146C11.8481 5.99489 12.0642 6.11556 12.2987 6.18463L12.5769 6.26688C13.3076 6.48213 13.3076 7.51638 12.5769 7.73163L12.2978 7.81388C12.0632 7.88303 11.8471 8.00379 11.6653 8.16732C11.4834 8.33085 11.3405 8.533 11.247 8.75895C11.1534 8.9849 11.1116 9.22892 11.1246 9.47313C11.1376 9.71734 11.2051 9.95553 11.3222 10.1703L11.4622 10.4249C11.8253 11.0934 11.0947 11.8249 10.4253 11.4609L10.1707 11.3218C9.9559 11.2047 9.71765 11.1373 9.47339 11.1243C9.22914 11.1113 8.98508 11.1532 8.75912 11.2468C8.53316 11.3405 8.33102 11.4835 8.16753 11.6655C8.00404 11.8474 7.88335 12.0636 7.81431 12.2983L7.73206 12.5765C7.51681 13.3071 6.48256 13.3071 6.26731 12.5765L6.18506 12.2974C6.11589 12.0629 5.99514 11.8469 5.83167 11.6652C5.66821 11.4834 5.46615 11.3406 5.24031 11.247C5.01447 11.1535 4.77057 11.1116 4.52647 11.1246C4.28237 11.1375 4.04425 11.2049 3.82956 11.3218L3.57406 11.4618C2.90556 11.8249 2.17406 11.0943 2.53806 10.4249L2.67718 10.1703C2.79439 9.9555 2.86203 9.71722 2.87513 9.47291C2.88824 9.2286 2.84647 8.98446 2.75291 8.75839C2.65935 8.53233 2.51635 8.33008 2.33443 8.16649C2.1525 8.0029 1.93626 7.88212 1.70156 7.81301L1.42243 7.73076C0.69181 7.51551 0.69181 6.48126 1.42243 6.26601L1.70156 6.18376C1.93589 6.11455 2.15178 5.99383 2.33343 5.83042C2.51509 5.66701 2.6579 5.46506 2.75143 5.23933C2.84496 5.0136 2.88683 4.76982 2.87399 4.52582C2.86114 4.28183 2.7939 4.04379 2.67718 3.82913L2.53718 3.57363C2.17406 2.90513 2.90468 2.17363 3.57406 2.53763L3.82956 2.67676C4.04425 2.79364 4.28237 2.86101 4.52647 2.87394C4.77057 2.88687 5.01447 2.84504 5.24031 2.7515C5.46615 2.65796 5.66821 2.51508 5.83167 2.33334C5.99514 2.15159 6.11589 1.93558 6.18506 1.70113L6.26731 1.42201Z" fill="#495057"/>
</g>
<defs>
<clipPath id="clip0_9_208007">
<rect width="14" height="14" fill="white"/>
</clipPath>
</defs>
</svg>
