<svg width="16" height="16" viewBox="0 0 16 16" fill="none" xmlns="http://www.w3.org/2000/svg">
<g clip-path="url(#clip0_25_52966)">
<path d="M7.99988 14.9992C6.14336 14.9992 4.36288 14.2617 3.05013 12.9489C1.73738 11.6362 0.999878 9.85569 0.999878 7.99918C0.999878 6.14266 1.73738 4.36218 3.05013 3.04943C4.36288 1.73667 6.14336 0.999176 7.99988 0.999176C9.85639 0.999176 11.6369 1.73667 12.9496 3.04943C14.2624 4.36218 14.9999 6.14266 14.9999 7.99918C14.9999 9.85569 14.2624 11.6362 12.9496 12.9489C11.6369 14.2617 9.85639 14.9992 7.99988 14.9992ZM7.99988 15.9992C10.1216 15.9992 12.1564 15.1563 13.6567 13.656C15.157 12.1557 15.9999 10.1209 15.9999 7.99918C15.9999 5.87744 15.157 3.84261 13.6567 2.34232C12.1564 0.842031 10.1216 -0.000823975 7.99988 -0.000823975C5.87815 -0.000823975 3.84331 0.842031 2.34302 2.34232C0.842733 3.84261 -0.00012207 5.87744 -0.00012207 7.99918C-0.00012207 10.1209 0.842733 12.1557 2.34302 13.656C3.84331 15.1563 5.87815 15.9992 7.99988 15.9992Z" fill="white"/>
<path d="M7.99988 3.99918C8.13249 3.99918 8.25966 4.05185 8.35343 4.14562C8.4472 4.23939 8.49988 4.36657 8.49988 4.49918V7.49918H11.4999C11.6325 7.49918 11.7597 7.55185 11.8534 7.64562C11.9472 7.73939 11.9999 7.86657 11.9999 7.99918C11.9999 8.13178 11.9472 8.25896 11.8534 8.35273C11.7597 8.4465 11.6325 8.49918 11.4999 8.49918H8.49988V11.4992C8.49988 11.6318 8.4472 11.759 8.35343 11.8527C8.25966 11.9465 8.13249 11.9992 7.99988 11.9992C7.86727 11.9992 7.74009 11.9465 7.64632 11.8527C7.55256 11.759 7.49988 11.6318 7.49988 11.4992V8.49918H4.49988C4.36727 8.49918 4.24009 8.4465 4.14632 8.35273C4.05256 8.25896 3.99988 8.13178 3.99988 7.99918C3.99988 7.86657 4.05256 7.73939 4.14632 7.64562C4.24009 7.55185 4.36727 7.49918 4.49988 7.49918H7.49988V4.49918C7.49988 4.36657 7.55256 4.23939 7.64632 4.14562C7.74009 4.05185 7.86727 3.99918 7.99988 3.99918Z" fill="white"/>
</g>
<defs>
<clipPath id="clip0_25_52966">
<rect width="16" height="16" fill="white" transform="translate(0.000244141)"/>
</clipPath>
</defs>
</svg>
