<svg width="16" height="16" viewBox="0 0 16 16" fill="none" xmlns="http://www.w3.org/2000/svg">
<g clip-path="url(#clip0_25_52955)">
<path d="M13.9999 0.999176C14.2651 0.999176 14.5194 1.10453 14.707 1.29207C14.8945 1.47961 14.9999 1.73396 14.9999 1.99918V13.9992C14.9999 14.2644 14.8945 14.5187 14.707 14.7063C14.5194 14.8938 14.2651 14.9992 13.9999 14.9992H1.99988C1.73466 14.9992 1.48031 14.8938 1.29277 14.7063C1.10523 14.5187 0.999878 14.2644 0.999878 13.9992V1.99918C0.999878 1.73396 1.10523 1.47961 1.29277 1.29207C1.48031 1.10453 1.73466 0.999176 1.99988 0.999176H13.9999ZM1.99988 -0.000823975C1.46944 -0.000823975 0.960737 0.20989 0.585664 0.584962C0.210592 0.960035 -0.00012207 1.46874 -0.00012207 1.99918V13.9992C-0.00012207 14.5296 0.210592 15.0383 0.585664 15.4134C0.960737 15.7885 1.46944 15.9992 1.99988 15.9992H13.9999C14.5303 15.9992 15.039 15.7885 15.4141 15.4134C15.7892 15.0383 15.9999 14.5296 15.9999 13.9992V1.99918C15.9999 1.46874 15.7892 0.960035 15.4141 0.584962C15.039 0.20989 14.5303 -0.000823975 13.9999 -0.000823975H1.99988Z" fill="white"/>
<path d="M7.99988 3.99918C8.13249 3.99918 8.25966 4.05185 8.35343 4.14562C8.4472 4.23939 8.49988 4.36657 8.49988 4.49918V7.49918H11.4999C11.6325 7.49918 11.7597 7.55185 11.8534 7.64562C11.9472 7.73939 11.9999 7.86657 11.9999 7.99918C11.9999 8.13178 11.9472 8.25896 11.8534 8.35273C11.7597 8.4465 11.6325 8.49918 11.4999 8.49918H8.49988V11.4992C8.49988 11.6318 8.4472 11.759 8.35343 11.8527C8.25966 11.9465 8.13249 11.9992 7.99988 11.9992C7.86727 11.9992 7.74009 11.9465 7.64632 11.8527C7.55256 11.759 7.49988 11.6318 7.49988 11.4992V8.49918H4.49988C4.36727 8.49918 4.24009 8.4465 4.14632 8.35273C4.05256 8.25896 3.99988 8.13178 3.99988 7.99918C3.99988 7.86657 4.05256 7.73939 4.14632 7.64562C4.24009 7.55185 4.36727 7.49918 4.49988 7.49918H7.49988V4.49918C7.49988 4.36657 7.55256 4.23939 7.64632 4.14562C7.74009 4.05185 7.86727 3.99918 7.99988 3.99918Z" fill="white"/>
</g>
<defs>
<clipPath id="clip0_25_52955">
<rect width="16" height="16" fill="white" transform="translate(0.000244141)"/>
</clipPath>
</defs>
</svg>
