<svg width="17" height="16" viewBox="0 0 17 16" fill="none" xmlns="http://www.w3.org/2000/svg">
<g clip-path="url(#clip0_25_52695)">
<path d="M14.1663 0.999176C14.4315 0.999176 14.6858 1.10453 14.8734 1.29207C15.0609 1.47961 15.1663 1.73396 15.1663 1.99918V13.9992C15.1663 14.2644 15.0609 14.5187 14.8734 14.7063C14.6858 14.8938 14.4315 14.9992 14.1663 14.9992H2.16626C1.90104 14.9992 1.64669 14.8938 1.45915 14.7063C1.27162 14.5187 1.16626 14.2644 1.16626 13.9992V1.99918C1.16626 1.73396 1.27162 1.47961 1.45915 1.29207C1.64669 1.10453 1.90104 0.999176 2.16626 0.999176H14.1663ZM2.16626 -0.000823975C1.63583 -0.000823975 1.12712 0.20989 0.752046 0.584962C0.376973 0.960035 0.16626 1.46874 0.16626 1.99918V13.9992C0.16626 14.5296 0.376973 15.0383 0.752046 15.4134C1.12712 15.7885 1.63583 15.9992 2.16626 15.9992H14.1663C14.6967 15.9992 15.2054 15.7885 15.5805 15.4134C15.9555 15.0383 16.1663 14.5296 16.1663 13.9992V1.99918C16.1663 1.46874 15.9555 0.960035 15.5805 0.584962C15.2054 0.20989 14.6967 -0.000823975 14.1663 -0.000823975H2.16626Z" fill="black"/>
<path d="M8.16626 3.99918C8.29887 3.99918 8.42605 4.05185 8.51981 4.14562C8.61358 4.23939 8.66626 4.36657 8.66626 4.49918V7.49918H11.6663C11.7989 7.49918 11.926 7.55185 12.0198 7.64562C12.1136 7.73939 12.1663 7.86657 12.1663 7.99918C12.1663 8.13178 12.1136 8.25896 12.0198 8.35273C11.926 8.4465 11.7989 8.49918 11.6663 8.49918H8.66626V11.4992C8.66626 11.6318 8.61358 11.759 8.51981 11.8527C8.42605 11.9465 8.29887 11.9992 8.16626 11.9992C8.03365 11.9992 7.90647 11.9465 7.81271 11.8527C7.71894 11.759 7.66626 11.6318 7.66626 11.4992V8.49918H4.66626C4.53365 8.49918 4.40647 8.4465 4.31271 8.35273C4.21894 8.25896 4.16626 8.13178 4.16626 7.99918C4.16626 7.86657 4.21894 7.73939 4.31271 7.64562C4.40647 7.55185 4.53365 7.49918 4.66626 7.49918H7.66626V4.49918C7.66626 4.36657 7.71894 4.23939 7.81271 4.14562C7.90647 4.05185 8.03365 3.99918 8.16626 3.99918Z" fill="black"/>
</g>
<defs>
<clipPath id="clip0_25_52695">
<rect width="16" height="16" fill="white" transform="translate(0.166626)"/>
</clipPath>
</defs>
</svg>
