<svg width="17" height="16" viewBox="0 0 17 16" fill="none" xmlns="http://www.w3.org/2000/svg">
<g clip-path="url(#clip0_25_52728)">
<path d="M8.83301 14.9992C6.97649 14.9992 5.19601 14.2617 3.88326 12.9489C2.57051 11.6362 1.83301 9.85569 1.83301 7.99918C1.83301 6.14266 2.57051 4.36218 3.88326 3.04943C5.19601 1.73667 6.97649 0.999176 8.83301 0.999176C10.6895 0.999176 12.47 1.73667 13.7828 3.04943C15.0955 4.36218 15.833 6.14266 15.833 7.99918C15.833 9.85569 15.0955 11.6362 13.7828 12.9489C12.47 14.2617 10.6895 14.9992 8.83301 14.9992ZM8.83301 15.9992C10.9547 15.9992 12.9896 15.1563 14.4899 13.656C15.9902 12.1557 16.833 10.1209 16.833 7.99918C16.833 5.87744 15.9902 3.84261 14.4899 2.34232C12.9896 0.842031 10.9547 -0.000823975 8.83301 -0.000823975C6.71128 -0.000823975 4.67644 0.842031 3.17615 2.34232C1.67586 3.84261 0.833008 5.87744 0.833008 7.99918C0.833008 10.1209 1.67586 12.1557 3.17615 13.656C4.67644 15.1563 6.71128 15.9992 8.83301 15.9992Z" fill="black"/>
<path d="M8.83301 3.99918C8.96562 3.99918 9.09279 4.05185 9.18656 4.14562C9.28033 4.23939 9.33301 4.36657 9.33301 4.49918V7.49918H12.333C12.4656 7.49918 12.5928 7.55185 12.6866 7.64562C12.7803 7.73939 12.833 7.86657 12.833 7.99918C12.833 8.13178 12.7803 8.25896 12.6866 8.35273C12.5928 8.4465 12.4656 8.49918 12.333 8.49918H9.33301V11.4992C9.33301 11.6318 9.28033 11.759 9.18656 11.8527C9.09279 11.9465 8.96562 11.9992 8.83301 11.9992C8.7004 11.9992 8.57322 11.9465 8.47945 11.8527C8.38569 11.759 8.33301 11.6318 8.33301 11.4992V8.49918H5.33301C5.2004 8.49918 5.07322 8.4465 4.97945 8.35273C4.88569 8.25896 4.83301 8.13178 4.83301 7.99918C4.83301 7.86657 4.88569 7.73939 4.97945 7.64562C5.07322 7.55185 5.2004 7.49918 5.33301 7.49918H8.33301V4.49918C8.33301 4.36657 8.38569 4.23939 8.47945 4.14562C8.57322 4.05185 8.7004 3.99918 8.83301 3.99918Z" fill="black"/>
</g>
<defs>
<clipPath id="clip0_25_52728">
<rect width="16" height="16" fill="white" transform="translate(0.833252)"/>
</clipPath>
</defs>
</svg>
