<svg width="10" height="10" viewBox="0 0 10 10" fill="none" xmlns="http://www.w3.org/2000/svg">
<path d="M4.52908 6.96171L1.53158 3.53546C1.17783 3.13233 1.46533 2.49921 2.0022 2.49921H7.9972C8.11735 2.4991 8.23499 2.53364 8.33602 2.59867C8.43705 2.6637 8.5172 2.75648 8.56686 2.86589C8.61652 2.9753 8.63359 3.09671 8.61602 3.21557C8.59846 3.33443 8.54701 3.44571 8.46783 3.53608L5.47033 6.96108C5.41166 7.02821 5.33932 7.08202 5.25815 7.11888C5.17697 7.15575 5.08885 7.17482 4.9997 7.17482C4.91055 7.17482 4.82243 7.15575 4.74126 7.11888C4.66009 7.08202 4.58774 7.02821 4.52908 6.96108V6.96171Z" fill="#495057"/>
</svg>
