<svg width="17" height="16" viewBox="0 0 17 16" fill="none" xmlns="http://www.w3.org/2000/svg">
<g clip-path="url(#clip0_25_52717)">
<path d="M14.833 0.999176C15.0982 0.999176 15.3526 1.10453 15.5401 1.29207C15.7277 1.47961 15.833 1.73396 15.833 1.99918V13.9992C15.833 14.2644 15.7277 14.5187 15.5401 14.7063C15.3526 14.8938 15.0982 14.9992 14.833 14.9992H2.83301C2.56779 14.9992 2.31344 14.8938 2.1259 14.7063C1.93836 14.5187 1.83301 14.2644 1.83301 13.9992V1.99918C1.83301 1.73396 1.93836 1.47961 2.1259 1.29207C2.31344 1.10453 2.56779 0.999176 2.83301 0.999176H14.833ZM2.83301 -0.000823975C2.30257 -0.000823975 1.79387 0.20989 1.41879 0.584962C1.04372 0.960035 0.833008 1.46874 0.833008 1.99918V13.9992C0.833008 14.5296 1.04372 15.0383 1.41879 15.4134C1.79387 15.7885 2.30257 15.9992 2.83301 15.9992H14.833C15.3634 15.9992 15.8721 15.7885 16.2472 15.4134C16.6223 15.0383 16.833 14.5296 16.833 13.9992V1.99918C16.833 1.46874 16.6223 0.960035 16.2472 0.584962C15.8721 0.20989 15.3634 -0.000823975 14.833 -0.000823975H2.83301Z" fill="black"/>
<path d="M8.83301 3.99918C8.96562 3.99918 9.09279 4.05185 9.18656 4.14562C9.28033 4.23939 9.33301 4.36657 9.33301 4.49918V7.49918H12.333C12.4656 7.49918 12.5928 7.55185 12.6866 7.64562C12.7803 7.73939 12.833 7.86657 12.833 7.99918C12.833 8.13178 12.7803 8.25896 12.6866 8.35273C12.5928 8.4465 12.4656 8.49918 12.333 8.49918H9.33301V11.4992C9.33301 11.6318 9.28033 11.759 9.18656 11.8527C9.09279 11.9465 8.96562 11.9992 8.83301 11.9992C8.7004 11.9992 8.57322 11.9465 8.47945 11.8527C8.38569 11.759 8.33301 11.6318 8.33301 11.4992V8.49918H5.33301C5.2004 8.49918 5.07322 8.4465 4.97945 8.35273C4.88569 8.25896 4.83301 8.13178 4.83301 7.99918C4.83301 7.86657 4.88569 7.73939 4.97945 7.64562C5.07322 7.55185 5.2004 7.49918 5.33301 7.49918H8.33301V4.49918C8.33301 4.36657 8.38569 4.23939 8.47945 4.14562C8.57322 4.05185 8.7004 3.99918 8.83301 3.99918Z" fill="black"/>
</g>
<defs>
<clipPath id="clip0_25_52717">
<rect width="16" height="16" fill="white" transform="translate(0.833252)"/>
</clipPath>
</defs>
</svg>
