<svg width="16" height="16" viewBox="0 0 16 16" fill="none" xmlns="http://www.w3.org/2000/svg">
<g clip-path="url(#clip0_25_5197)">
<path d="M12.1456 0.145185C12.192 0.0986216 12.2472 0.0616787 12.3079 0.0364723C12.3687 0.0112658 12.4338 -0.00170898 12.4996 -0.00170898C12.5653 -0.00170898 12.6305 0.0112658 12.6912 0.0364723C12.7519 0.0616787 12.8071 0.0986216 12.8536 0.145185L15.8536 3.14518C15.9001 3.19163 15.9371 3.24681 15.9623 3.30755C15.9875 3.3683 16.0005 3.43342 16.0005 3.49918C16.0005 3.56495 15.9875 3.63007 15.9623 3.69082C15.9371 3.75156 15.9001 3.80674 15.8536 3.85318L5.85356 13.8532C5.80558 13.9008 5.74842 13.9383 5.68556 13.9632L0.685562 15.9632C0.594698 15.9996 0.495158 16.0085 0.399281 15.9888C0.303405 15.9691 0.215409 15.9218 0.146203 15.8525C0.0769962 15.7833 0.0296227 15.6953 0.00995522 15.5995C-0.00971224 15.5036 -0.000808734 15.404 0.0355619 15.3132L2.03556 10.3132C2.06049 10.2503 2.09791 10.1932 2.14556 10.1452L12.1456 0.145185ZM11.2066 2.49918L13.4996 4.79218L14.7926 3.49918L12.4996 1.20618L11.2066 2.49918ZM12.7926 5.49918L10.4996 3.20618L3.99956 9.70618V9.99918H4.49956C4.63217 9.99918 4.75935 10.0519 4.85312 10.1456C4.94688 10.2394 4.99956 10.3666 4.99956 10.4992V10.9992H5.49956C5.63217 10.9992 5.75935 11.0519 5.85312 11.1456C5.94688 11.2394 5.99956 11.3666 5.99956 11.4992V11.9992H6.29256L12.7926 5.49918ZM3.03156 10.6742L2.92556 10.7802L1.39756 14.6012L5.21856 13.0732L5.32456 12.9672C5.22918 12.9315 5.14695 12.8676 5.08888 12.784C5.0308 12.7004 4.99964 12.601 4.99956 12.4992V11.9992H4.49956C4.36695 11.9992 4.23978 11.9465 4.14601 11.8527C4.05224 11.759 3.99956 11.6318 3.99956 11.4992V10.9992H3.49956C3.39774 10.9991 3.29837 10.9679 3.21474 10.9099C3.13111 10.8518 3.0672 10.7696 3.03156 10.6742Z" fill="#6C757D"/>
</g>
<defs>
<clipPath id="clip0_25_5197">
<rect width="16" height="16" fill="white"/>
</clipPath>
</defs>
</svg>
