<svg width="17" height="16" viewBox="0 0 17 16" fill="none" xmlns="http://www.w3.org/2000/svg">
<g clip-path="url(#clip0_25_52750)">
<path d="M14.1107 0.999176C14.3759 0.999176 14.6303 1.10453 14.8178 1.29207C15.0054 1.47961 15.1107 1.73396 15.1107 1.99918V13.9992C15.1107 14.2644 15.0054 14.5187 14.8178 14.7063C14.6303 14.8938 14.3759 14.9992 14.1107 14.9992H2.11072C1.8455 14.9992 1.59115 14.8938 1.40361 14.7063C1.21607 14.5187 1.11072 14.2644 1.11072 13.9992V1.99918C1.11072 1.73396 1.21607 1.47961 1.40361 1.29207C1.59115 1.10453 1.8455 0.999176 2.11072 0.999176H14.1107ZM2.11072 -0.000823975C1.58028 -0.000823975 1.07158 0.20989 0.696504 0.584962C0.321431 0.960035 0.110718 1.46874 0.110718 1.99918V13.9992C0.110718 14.5296 0.321431 15.0383 0.696504 15.4134C1.07158 15.7885 1.58028 15.9992 2.11072 15.9992H14.1107C14.6412 15.9992 15.1499 15.7885 15.5249 15.4134C15.9 15.0383 16.1107 14.5296 16.1107 13.9992V1.99918C16.1107 1.46874 15.9 0.960035 15.5249 0.584962C15.1499 0.20989 14.6412 -0.000823975 14.1107 -0.000823975H2.11072Z" fill="#0D6EFD"/>
<path d="M8.11072 3.99918C8.24333 3.99918 8.3705 4.05185 8.46427 4.14562C8.55804 4.23939 8.61072 4.36657 8.61072 4.49918V7.49918H11.6107C11.7433 7.49918 11.8705 7.55185 11.9643 7.64562C12.058 7.73939 12.1107 7.86657 12.1107 7.99918C12.1107 8.13178 12.058 8.25896 11.9643 8.35273C11.8705 8.4465 11.7433 8.49918 11.6107 8.49918H8.61072V11.4992C8.61072 11.6318 8.55804 11.759 8.46427 11.8527C8.3705 11.9465 8.24333 11.9992 8.11072 11.9992C7.97811 11.9992 7.85093 11.9465 7.75716 11.8527C7.6634 11.759 7.61072 11.6318 7.61072 11.4992V8.49918H4.61072C4.47811 8.49918 4.35093 8.4465 4.25716 8.35273C4.1634 8.25896 4.11072 8.13178 4.11072 7.99918C4.11072 7.86657 4.1634 7.73939 4.25716 7.64562C4.35093 7.55185 4.47811 7.49918 4.61072 7.49918H7.61072V4.49918C7.61072 4.36657 7.6634 4.23939 7.75716 4.14562C7.85093 4.05185 7.97811 3.99918 8.11072 3.99918Z" fill="#0D6EFD"/>
</g>
<defs>
<clipPath id="clip0_25_52750">
<rect width="16" height="16" fill="white" transform="translate(0.111084)"/>
</clipPath>
</defs>
</svg>
