<svg width="14" height="14" viewBox="0 0 14 14" fill="none" xmlns="http://www.w3.org/2000/svg">
<path fill-rule="evenodd" clip-rule="evenodd" d="M4.06493 1.43945C4.10557 1.3987 4.15385 1.36638 4.207 1.34432C4.26016 1.32227 4.31714 1.31091 4.37468 1.31091C4.43223 1.31091 4.48921 1.32227 4.54236 1.34432C4.59551 1.36638 4.64379 1.3987 4.68443 1.43945L9.93443 6.68944C9.97518 6.73008 10.0075 6.77836 10.0296 6.83152C10.0516 6.88467 10.063 6.94165 10.063 6.99919C10.063 7.05674 10.0516 7.11372 10.0296 7.16687C10.0075 7.22003 9.97518 7.26831 9.93443 7.30895L4.68443 12.5589C4.60228 12.6411 4.49086 12.6872 4.37468 12.6872C4.2585 12.6872 4.14708 12.6411 4.06493 12.5589C3.98278 12.4768 3.93663 12.3654 3.93663 12.2492C3.93663 12.133 3.98278 12.0216 4.06493 11.9394L9.00606 6.99919L4.06493 2.05895C4.02419 2.01831 3.99187 1.97003 3.96981 1.91687C3.94775 1.86372 3.9364 1.80674 3.9364 1.7492C3.9364 1.69165 3.94775 1.63467 3.96981 1.58152C3.99187 1.52836 4.02419 1.48009 4.06493 1.43945V1.43945Z" fill="white" fill-opacity="0.7"/>
</svg>
