<svg width="17" height="16" viewBox="0 0 17 16" fill="none" xmlns="http://www.w3.org/2000/svg">
<g clip-path="url(#clip0_25_52834)">
<path d="M8.49963 14.9992C6.64312 14.9992 4.86264 14.2617 3.54989 12.9489C2.23713 11.6362 1.49963 9.85569 1.49963 7.99918C1.49963 6.14266 2.23713 4.36218 3.54989 3.04943C4.86264 1.73667 6.64312 0.999176 8.49963 0.999176C10.3561 0.999176 12.1366 1.73667 13.4494 3.04943C14.7621 4.36218 15.4996 6.14266 15.4996 7.99918C15.4996 9.85569 14.7621 11.6362 13.4494 12.9489C12.1366 14.2617 10.3561 14.9992 8.49963 14.9992ZM8.49963 15.9992C10.6214 15.9992 12.6562 15.1563 14.1565 13.656C15.6568 12.1557 16.4996 10.1209 16.4996 7.99918C16.4996 5.87744 15.6568 3.84261 14.1565 2.34232C12.6562 0.842031 10.6214 -0.000823975 8.49963 -0.000823975C6.3779 -0.000823975 4.34307 0.842031 2.84278 2.34232C1.34249 3.84261 0.499634 5.87744 0.499634 7.99918C0.499634 10.1209 1.34249 12.1557 2.84278 13.656C4.34307 15.1563 6.3779 15.9992 8.49963 15.9992Z" fill="black"/>
<path d="M8.49963 3.99918C8.63224 3.99918 8.75942 4.05185 8.85319 4.14562C8.94696 4.23939 8.99963 4.36657 8.99963 4.49918V7.49918H11.9996C12.1322 7.49918 12.2594 7.55185 12.3532 7.64562C12.447 7.73939 12.4996 7.86657 12.4996 7.99918C12.4996 8.13178 12.447 8.25896 12.3532 8.35273C12.2594 8.4465 12.1322 8.49918 11.9996 8.49918H8.99963V11.4992C8.99963 11.6318 8.94696 11.759 8.85319 11.8527C8.75942 11.9465 8.63224 11.9992 8.49963 11.9992C8.36703 11.9992 8.23985 11.9465 8.14608 11.8527C8.05231 11.759 7.99963 11.6318 7.99963 11.4992V8.49918H4.99963C4.86703 8.49918 4.73985 8.4465 4.64608 8.35273C4.55231 8.25896 4.49963 8.13178 4.49963 7.99918C4.49963 7.86657 4.55231 7.73939 4.64608 7.64562C4.73985 7.55185 4.86703 7.49918 4.99963 7.49918H7.99963V4.49918C7.99963 4.36657 8.05231 4.23939 8.14608 4.14562C8.23985 4.05185 8.36703 3.99918 8.49963 3.99918Z" fill="black"/>
</g>
<defs>
<clipPath id="clip0_25_52834">
<rect width="16" height="16" fill="white" transform="translate(0.5)"/>
</clipPath>
</defs>
</svg>
