<svg width="24" height="24" viewBox="0 0 24 24" fill="none" xmlns="http://www.w3.org/2000/svg">
<g clip-path="url(#clip0_25_31283)">
<path d="M16.8765 0.102006C17.0233 0.187114 17.1369 0.319492 17.1988 0.477513C17.2606 0.635534 17.267 0.809858 17.217 0.972006L14.5155 9.75001H19.5C19.6465 9.74995 19.7898 9.79279 19.9122 9.87323C20.0346 9.95368 20.1308 10.0682 20.1888 10.2027C20.2469 10.3372 20.2643 10.4857 20.2389 10.63C20.2136 10.7743 20.1465 10.9079 20.046 11.0145L8.04599 23.7645C7.92988 23.888 7.77538 23.9685 7.60765 23.9929C7.43993 24.0173 7.26889 23.9842 7.1224 23.8989C6.97591 23.8137 6.86262 23.6813 6.80098 23.5234C6.73935 23.3656 6.73301 23.1915 6.78299 23.0295L9.48449 14.25H4.49999C4.35351 14.2501 4.21022 14.2072 4.0878 14.1268C3.96539 14.0463 3.86921 13.9318 3.81114 13.7973C3.75307 13.6628 3.73566 13.5143 3.76104 13.37C3.78643 13.2258 3.85351 13.0921 3.95399 12.9855L15.954 0.235506C16.07 0.112205 16.2242 0.0317594 16.3917 0.00724931C16.5592 -0.0172608 16.7301 0.0156063 16.8765 0.100506V0.102006ZM6.23549 12.75H10.5C10.6174 12.75 10.7331 12.7775 10.8379 12.8304C10.9427 12.8832 11.0336 12.9599 11.1034 13.0543C11.1731 13.1487 11.2197 13.2582 11.2395 13.3739C11.2592 13.4896 11.2515 13.6083 11.217 13.7205L9.16499 20.385L17.763 11.25H13.5C13.3826 11.25 13.2669 11.2225 13.1621 11.1696C13.0573 11.1168 12.9664 11.0401 12.8966 10.9457C12.8269 10.8513 12.7803 10.7418 12.7605 10.6261C12.7408 10.5104 12.7485 10.3917 12.783 10.2795L14.835 3.61501L6.23549 12.75Z" fill="#F8F9FA"/>
</g>
<defs>
<clipPath id="clip0_25_31283">
<rect width="24" height="24" fill="white"/>
</clipPath>
</defs>
</svg>
