<svg width="38" height="40" viewBox="0 0 38 40" fill="none" xmlns="http://www.w3.org/2000/svg">
<path d="M6.8002 3.29524C7.13604 1.99392 7.30395 1.34326 7.7459 0.87154C7.95864 0.644469 8.2117 0.451202 8.48826 0.304584C9.06278 0 9.74683 0 11.1149 0H24.2112C25.5793 0 26.2633 0 26.6806 0.304584C26.8815 0.451202 27.0348 0.644469 27.1304 0.87154C27.3288 1.34326 27.1609 1.99392 26.8251 3.29524L23.6103 15.7524C23.2744 17.0537 23.1065 17.7044 22.6646 18.1761C22.4518 18.4032 22.1988 18.5964 21.9222 18.743C21.3477 19.0476 20.6636 19.0476 19.2955 19.0476H6.19927C4.83119 19.0476 4.14714 19.0476 3.72983 18.743C3.52894 18.5964 3.37564 18.4032 3.2801 18.1761C3.08162 17.7044 3.24954 17.0537 3.58537 15.7524L6.8002 3.29524Z" fill="url(#paint0_linear_9_11980)"/>
<path d="M31.1998 36.7048C30.864 38.0061 30.696 38.6567 30.2541 39.1285C30.0414 39.3555 29.7883 39.5488 29.5117 39.6954C28.9372 40 28.2532 40 26.8851 40H13.7888C12.4207 40 11.7367 40 11.3194 39.6954C11.1185 39.5488 10.9652 39.3555 10.8696 39.1285C10.6712 38.6567 10.8391 38.0061 11.1749 36.7048L14.3897 24.2476C14.7256 22.9463 14.8935 22.2956 15.3354 21.8239C15.5482 21.5968 15.8012 21.4036 16.0778 21.257C16.6523 20.9524 17.3364 20.9524 18.7045 20.9524H31.8007C33.1688 20.9524 33.8529 20.9524 34.2702 21.257C34.4711 21.4036 34.6244 21.5968 34.7199 21.8239C34.9184 22.2956 34.7505 22.9463 34.4146 24.2476L31.1998 36.7048Z" fill="url(#paint1_linear_9_11980)"/>
<path d="M26.6156 11.8667C26.9514 10.5654 27.1193 9.91472 27.5613 9.44299C27.774 9.21591 28.0271 9.02264 28.3036 8.87602C28.8782 8.57143 29.5622 8.57143 30.9303 8.57143H34.9958C36.3638 8.57143 37.0479 8.57143 37.4652 8.87601C37.6661 9.02262 37.8194 9.21588 37.9149 9.44295C38.1134 9.91465 37.9455 10.5653 37.6097 11.8666L36.607 15.7523C36.2712 17.0537 36.1033 17.7043 35.6613 18.1761C35.4486 18.4031 35.1955 18.5964 34.9189 18.743C34.3444 19.0476 33.6604 19.0476 32.2922 19.0476H28.2268C26.8587 19.0476 26.1747 19.0476 25.7574 18.743C25.5565 18.5964 25.4032 18.4032 25.3077 18.1761C25.1092 17.7044 25.2771 17.0537 25.6129 15.7524L26.6156 11.8667Z" fill="url(#paint2_linear_9_11980)"/>
<path d="M11.3844 28.1333C11.0486 29.4346 10.8807 30.0853 10.4387 30.557C10.226 30.7841 9.97294 30.9774 9.69638 31.124C9.12185 31.4286 8.43779 31.4286 7.06968 31.4286H3.00424C1.63617 31.4286 0.952142 31.4286 0.534829 31.124C0.333947 30.9774 0.18064 30.7841 0.0850978 30.5571C-0.113381 30.0853 0.0545178 29.4347 0.390316 28.1334L1.39302 24.2477C1.72883 22.9463 1.89674 22.2957 2.33869 21.8239C2.55143 21.5969 2.80449 21.4036 3.08105 21.257C3.65558 20.9524 4.33964 20.9524 5.70775 20.9524H9.77319C11.1413 20.9524 11.8253 20.9524 12.2426 21.257C12.4435 21.4036 12.5968 21.5968 12.6923 21.8239C12.8908 22.2956 12.7229 22.9463 12.3871 24.2476L11.3844 28.1333Z" fill="url(#paint3_linear_9_11980)"/>
<defs>
<linearGradient id="paint0_linear_9_11980" x1="22.9048" y1="2.94732" x2="5.7567" y2="34.2847" gradientUnits="userSpaceOnUse">
<stop stop-color="#0051EE"/>
<stop offset="0.471862" stop-color="#05B4FF"/>
<stop offset="1" stop-color="#24FFD8"/>
</linearGradient>
<linearGradient id="paint1_linear_9_11980" x1="22.9048" y1="2.94732" x2="5.7567" y2="34.2847" gradientUnits="userSpaceOnUse">
<stop stop-color="#0051EE"/>
<stop offset="0.471862" stop-color="#05B4FF"/>
<stop offset="1" stop-color="#24FFD8"/>
</linearGradient>
<linearGradient id="paint2_linear_9_11980" x1="22.9048" y1="2.94732" x2="5.7567" y2="34.2847" gradientUnits="userSpaceOnUse">
<stop stop-color="#0051EE"/>
<stop offset="0.471862" stop-color="#05B4FF"/>
<stop offset="1" stop-color="#24FFD8"/>
</linearGradient>
<linearGradient id="paint3_linear_9_11980" x1="22.9048" y1="2.94732" x2="5.7567" y2="34.2847" gradientUnits="userSpaceOnUse">
<stop stop-color="#0051EE"/>
<stop offset="0.471862" stop-color="#05B4FF"/>
<stop offset="1" stop-color="#24FFD8"/>
</linearGradient>
</defs>
</svg>
