<svg width="25" height="24" viewBox="0 0 25 24" fill="none" xmlns="http://www.w3.org/2000/svg">
<g clip-path="url(#clip0_22_27594)">
<path d="M17.3022 20.4844H18.7085V21.8906H17.3022V20.4844Z" fill="#6C757D"/>
<path d="M17.3022 16.2656H18.7085V19.0781H17.3022V16.2656Z" fill="#6C757D"/>
<path d="M24.0337 20.8064L19.815 13.7752C19.5354 13.3091 19.085 12.9739 18.5726 12.8294C18.6003 12.5385 18.6147 12.2456 18.6147 11.9531C18.6147 9.11344 17.313 6.57216 15.2751 4.89436L16.5028 3.14095L15.3509 2.33437L14.124 4.08661C12.9508 3.39052 11.6099 2.94877 10.1772 2.83927V1.40625H11.5835V0C11.0576 0 7.82487 0 7.36475 0V1.40625H8.771V2.83927C7.33836 2.94877 5.9974 3.39052 4.82426 4.08661L3.59736 2.33437L2.44545 3.14095L3.67315 4.89436C1.63521 6.57216 0.333496 9.11344 0.333496 11.9531C0.333496 16.9933 4.43398 21.0938 9.47412 21.0938C10.3381 21.0938 11.1971 20.9706 12.0215 20.7321L11.977 20.8064C11.7809 21.1332 11.6772 21.5081 11.6772 21.8906C11.6772 23.0537 12.6235 24 13.7866 24H22.2241C23.3872 24 24.3335 23.0537 24.3335 21.8906C24.3335 21.5081 24.2299 21.1332 24.0337 20.8064ZM13.176 18.7459C12.0482 19.3619 10.7681 19.6875 9.47412 19.6875C5.20939 19.6875 1.73975 16.2179 1.73975 11.9531C1.73975 7.68839 5.20939 4.21875 9.47412 4.21875C13.7389 4.21875 17.2085 7.68839 17.2085 11.9531C17.2085 12.2817 17.1877 12.6109 17.1466 12.9355C16.7569 13.11 16.4208 13.3999 16.1957 13.7751L13.1937 18.7784L13.176 18.7459ZM22.2241 22.5938H13.7866C13.3989 22.5938 13.0835 22.2783 13.0835 21.8906C13.0835 21.7629 13.1179 21.6382 13.1828 21.5299L17.4016 14.4987C17.5302 14.2843 17.7559 14.1563 18.0054 14.1563C18.2548 14.1563 18.4805 14.2843 18.6092 14.4987L22.8279 21.53C22.8929 21.6383 22.9272 21.7629 22.9272 21.8907C22.9272 22.2783 22.6118 22.5938 22.2241 22.5938Z" fill="#6C757D"/>
<path d="M10.1773 7.03158L8.77104 7.03092L8.76855 12.6562H14.396V11.25H10.1754L10.1773 7.03158Z" fill="#6C757D"/>
</g>
<defs>
<clipPath id="clip0_22_27594">
<rect width="24" height="24" fill="white" transform="translate(0.333496)"/>
</clipPath>
</defs>
</svg>
