<svg width="25" height="24" viewBox="0 0 25 24" fill="none" xmlns="http://www.w3.org/2000/svg">
<path d="M21.5115 7.33309L22.4372 6.40734C22.9276 5.91692 22.5804 5.07357 21.8849 5.07357H19.5933V2.78216C19.5933 2.08849 18.7513 1.738 18.2595 2.22964L17.3337 3.15539C15.9012 2.3987 14.3001 2.00091 12.6664 2.00091C7.13989 2.00091 2.66675 6.47326 2.66675 12.0005C2.66675 17.5269 7.13913 22 12.6664 22C18.1928 22 22.666 17.5276 22.666 12.0005C22.666 10.3667 22.2683 8.76574 21.5115 7.33309ZM18.812 6.63607H19.9987L18.4884 8.14639H16.5204V6.17846L18.0308 4.66814V5.85482C18.0308 6.28634 18.3805 6.63607 18.812 6.63607ZM12.6664 20.4377C8.00339 20.4377 4.22926 16.664 4.22926 12.0005C4.22926 7.33752 8.00278 3.56325 12.6664 3.56325C13.8813 3.56325 15.0744 3.82357 16.1674 4.32192L15.1868 5.30245C15.0403 5.44894 14.9579 5.64761 14.9579 5.85482V8.604L12.114 11.4481C11.809 11.7531 11.809 12.2478 12.114 12.5528C12.419 12.8578 12.9137 12.858 13.2189 12.5528L16.0628 9.70889H18.812C19.0192 9.70889 19.2179 9.62649 19.3644 9.48016L20.3451 8.49947C20.8434 9.59246 21.1036 10.7855 21.1036 12.0005C21.1036 16.6634 17.3301 20.4377 12.6664 20.4377ZM18.827 12.0005C18.827 15.3974 16.0634 18.161 12.6664 18.161C9.26942 18.161 6.50573 15.3974 6.50573 12.0005C6.50573 8.60354 9.26942 5.83987 12.6664 5.83987C13.0979 5.83987 13.4476 6.1896 13.4476 6.62112C13.4476 7.05264 13.0979 7.40237 12.6664 7.40237C10.1309 7.40237 8.06824 9.46505 8.06824 12.0005C8.06824 14.5359 10.1309 16.5985 12.6664 16.5985C15.2018 16.5985 17.2646 14.5359 17.2646 12.0005C17.2646 11.5689 17.6144 11.2192 18.0457 11.2192C18.4772 11.2192 18.827 11.5689 18.827 12.0005Z" fill="#6C757D"/>
</svg>
