<svg width="13" height="12" viewBox="0 0 13 12" fill="none" xmlns="http://www.w3.org/2000/svg">
<path d="M6.3352 3.56575C6.01549 3.56575 5.69892 3.62872 5.40355 3.75106C5.10819 3.87341 4.83981 4.05273 4.61375 4.2788C4.38768 4.50486 4.20836 4.77324 4.08601 5.0686C3.96367 5.36397 3.9007 5.68054 3.9007 6.00025C3.9007 6.31995 3.96367 6.63652 4.08601 6.93189C4.20836 7.22726 4.38768 7.49564 4.61375 7.7217C4.83981 7.94776 5.10819 8.12709 5.40355 8.24943C5.69892 8.37178 6.01549 8.43475 6.3352 8.43475C6.98087 8.43475 7.60009 8.17826 8.05665 7.7217C8.51321 7.26514 8.7697 6.64592 8.7697 6.00025C8.7697 5.35458 8.51321 4.73535 8.05665 4.2788C7.60009 3.82224 6.98087 3.56575 6.3352 3.56575ZM4.6507 6.00025C4.6507 5.55349 4.82817 5.12503 5.14408 4.80913C5.45998 4.49322 5.88844 4.31575 6.3352 4.31575C6.78195 4.31575 7.21041 4.49322 7.52632 4.80913C7.84222 5.12503 8.0197 5.55349 8.0197 6.00025C8.0197 6.447 7.84222 6.87546 7.52632 7.19137C7.21041 7.50727 6.78195 7.68475 6.3352 7.68475C5.88844 7.68475 5.45998 7.50727 5.14408 7.19137C4.82817 6.87546 4.6507 6.447 4.6507 6.00025Z" fill="#212529"/>
<path d="M7.6822 1.0075C7.28695 -0.335003 5.38345 -0.335003 4.9882 1.0075L4.9177 1.24675C4.89009 1.34046 4.84187 1.42681 4.77656 1.49947C4.71125 1.57212 4.63051 1.62924 4.54025 1.66664C4.45 1.70403 4.35252 1.72076 4.25496 1.71559C4.1574 1.71041 4.06224 1.68348 3.97645 1.63675L3.75745 1.51675C2.52745 0.847747 1.1827 2.19325 1.85245 3.4225L1.9717 3.6415C2.01843 3.72729 2.04536 3.82246 2.05053 3.92001C2.05571 4.01757 2.03898 4.11505 2.00159 4.2053C1.96419 4.29556 1.90707 4.3763 1.83442 4.44161C1.76176 4.50692 1.67541 4.55514 1.5817 4.58275L1.34245 4.65325C-5.37305e-05 5.0485 -5.37305e-05 6.952 1.34245 7.34725L1.5817 7.41775C1.67541 7.44535 1.76176 7.49357 1.83442 7.55888C1.90707 7.6242 1.96419 7.70494 2.00159 7.79519C2.03898 7.88545 2.05571 7.98292 2.05053 8.08048C2.04536 8.17804 2.01843 8.2732 1.9717 8.359L1.8517 8.578C1.1827 9.808 2.52745 11.1535 3.75745 10.483L3.97645 10.3637C4.06224 10.317 4.1574 10.2901 4.25496 10.2849C4.35252 10.2797 4.45 10.2965 4.54025 10.3339C4.63051 10.3713 4.71125 10.4284 4.77656 10.501C4.84187 10.5737 4.89009 10.66 4.9177 10.7537L4.9882 10.993C5.38345 12.3355 7.28695 12.3355 7.6822 10.993L7.7527 10.7537C7.7803 10.66 7.82852 10.5737 7.89383 10.501C7.95915 10.4284 8.03989 10.3713 8.13014 10.3339C8.22039 10.2965 8.31787 10.2797 8.41543 10.2849C8.51299 10.2901 8.60815 10.317 8.69395 10.3637L8.91295 10.4837C10.1429 11.1535 11.4884 9.80725 10.8179 8.578L10.6987 8.359C10.652 8.2732 10.625 8.17804 10.6199 8.08048C10.6147 7.98292 10.6314 7.88545 10.6688 7.79519C10.7062 7.70494 10.7633 7.6242 10.836 7.55888C10.9086 7.49357 10.995 7.44535 11.0887 7.41775L11.3279 7.34725C12.6704 6.952 12.6704 5.0485 11.3279 4.65325L11.0887 4.58275C10.995 4.55514 10.9086 4.50692 10.836 4.44161C10.7633 4.3763 10.7062 4.29556 10.6688 4.2053C10.6314 4.11505 10.6147 4.01757 10.6199 3.92001C10.625 3.82246 10.652 3.72729 10.6987 3.6415L10.8187 3.4225C11.4884 2.1925 10.1422 0.847747 8.91295 1.5175L8.69395 1.63675C8.60815 1.68348 8.51299 1.71041 8.41543 1.71559C8.31787 1.72076 8.22039 1.70403 8.13014 1.66664C8.03989 1.62924 7.95915 1.57212 7.89383 1.49947C7.82852 1.42681 7.7803 1.34046 7.7527 1.24675L7.6822 1.0075ZM5.70745 1.21975C5.89195 0.593497 6.77845 0.593497 6.96295 1.21975L7.03345 1.459C7.09271 1.66006 7.19622 1.84531 7.33639 2.00117C7.47656 2.15703 7.64983 2.27954 7.8435 2.35973C8.03718 2.43992 8.24634 2.47575 8.45566 2.46459C8.66498 2.45343 8.86915 2.39557 9.0532 2.29525L9.27145 2.17525C9.84445 1.864 10.4714 2.49025 10.1594 3.064L10.0402 3.283C9.94003 3.46707 9.88231 3.67122 9.87127 3.88049C9.86023 4.08976 9.89616 4.29885 9.97641 4.49244C10.0567 4.68602 10.1792 4.8592 10.3351 4.99928C10.4909 5.13936 10.6762 5.24279 10.8772 5.302L11.1157 5.3725C11.7419 5.557 11.7419 6.4435 11.1157 6.628L10.8764 6.6985C10.6754 6.75776 10.4901 6.86127 10.3343 7.00144C10.1784 7.14161 10.0559 7.31488 9.97571 7.50855C9.89553 7.70223 9.8597 7.91139 9.87086 8.12071C9.88201 8.33003 9.93987 8.5342 10.0402 8.71825L10.1602 8.9365C10.4714 9.5095 9.8452 10.1365 9.27145 9.8245L9.0532 9.70525C8.8691 9.60493 8.66488 9.5471 8.45552 9.53599C8.24616 9.52488 8.03697 9.56077 7.84328 9.64104C7.6496 9.7213 7.47634 9.8439 7.33621 9.99984C7.19608 10.1558 7.09263 10.3411 7.03345 10.5422L6.96295 10.7807C6.77845 11.407 5.89195 11.407 5.70745 10.7807L5.63695 10.5415C5.57766 10.3405 5.47416 10.1554 5.33404 9.99961C5.19393 9.84383 5.02074 9.72136 4.82716 9.64119C4.63359 9.56101 4.42453 9.52515 4.2153 9.53623C4.00607 9.54732 3.80197 9.60507 3.61795 9.70525L3.39895 9.82525C2.82595 10.1365 2.19895 9.51025 2.51095 8.9365L2.6302 8.71825C2.73066 8.53417 2.78863 8.32993 2.79987 8.12052C2.8111 7.91111 2.7753 7.70185 2.6951 7.50808C2.61491 7.31431 2.49234 7.14095 2.33641 7.00073C2.18047 6.86051 1.99512 6.75699 1.79395 6.69775L1.5547 6.62725C0.928446 6.44275 0.928446 5.55625 1.5547 5.37175L1.79395 5.30125C1.9948 5.24193 2.17985 5.13845 2.33555 4.99839C2.49126 4.85832 2.61367 4.68522 2.69384 4.49174C2.774 4.29826 2.80989 4.0893 2.79888 3.88016C2.78787 3.67102 2.73024 3.46699 2.6302 3.283L2.5102 3.064C2.19895 2.491 2.8252 1.864 3.39895 2.176L3.61795 2.29525C3.80197 2.39543 4.00607 2.45318 4.2153 2.46426C4.42453 2.47535 4.63359 2.43949 4.82716 2.35931C5.02074 2.27913 5.19393 2.15667 5.33404 2.00089C5.47416 1.84511 5.57766 1.65996 5.63695 1.459L5.70745 1.21975Z" fill="#212529"/>
</svg>
