<svg width="21" height="20" viewBox="0 0 21 20" fill="none" xmlns="http://www.w3.org/2000/svg">
<path d="M18.1274 3.7511C18.2932 3.7511 18.4522 3.81695 18.5694 3.93416C18.6866 4.05137 18.7524 4.21034 18.7524 4.3761V15.6261C18.7524 15.7919 18.6866 15.9508 18.5694 16.068C18.4522 16.1853 18.2932 16.2511 18.1274 16.2511H1.87744C1.71168 16.2511 1.55271 16.1853 1.4355 16.068C1.31829 15.9508 1.25244 15.7919 1.25244 15.6261V4.3761C1.25244 4.21034 1.31829 4.05137 1.4355 3.93416C1.55271 3.81695 1.71168 3.7511 1.87744 3.7511H18.1274ZM1.87744 2.5011C1.38016 2.5011 0.903247 2.69864 0.551616 3.05027C0.199985 3.4019 0.00244141 3.87882 0.00244141 4.3761V15.6261C0.00244141 16.1234 0.199985 16.6003 0.551616 16.9519C0.903247 17.3036 1.38016 17.5011 1.87744 17.5011H18.1274C18.6247 17.5011 19.1016 17.3036 19.4533 16.9519C19.8049 16.6003 20.0024 16.1234 20.0024 15.6261V4.3761C20.0024 3.87882 19.8049 3.4019 19.4533 3.05027C19.1016 2.69864 18.6247 2.5011 18.1274 2.5011H1.87744Z" fill="white" fill-opacity="0.7"/>
<path d="M3.75244 6.8761C3.75244 6.71034 3.81829 6.55137 3.9355 6.43416C4.05271 6.31695 4.21168 6.2511 4.37744 6.2511H15.6274C15.7932 6.2511 15.9522 6.31695 16.0694 6.43416C16.1866 6.55137 16.2524 6.71034 16.2524 6.8761C16.2524 7.04186 16.1866 7.20083 16.0694 7.31804C15.9522 7.43525 15.7932 7.5011 15.6274 7.5011H4.37744C4.21168 7.5011 4.05271 7.43525 3.9355 7.31804C3.81829 7.20083 3.75244 7.04186 3.75244 6.8761ZM3.75244 10.0011C3.75244 9.83534 3.81829 9.67637 3.9355 9.55916C4.05271 9.44195 4.21168 9.3761 4.37744 9.3761H15.6274C15.7932 9.3761 15.9522 9.44195 16.0694 9.55916C16.1866 9.67637 16.2524 9.83534 16.2524 10.0011C16.2524 10.1669 16.1866 10.3258 16.0694 10.443C15.9522 10.5603 15.7932 10.6261 15.6274 10.6261H4.37744C4.21168 10.6261 4.05271 10.5603 3.9355 10.443C3.81829 10.3258 3.75244 10.1669 3.75244 10.0011ZM3.75244 13.1261C3.75244 12.9603 3.81829 12.8014 3.9355 12.6842C4.05271 12.5669 4.21168 12.5011 4.37744 12.5011H11.8774C12.0432 12.5011 12.2022 12.5669 12.3194 12.6842C12.4366 12.8014 12.5024 12.9603 12.5024 13.1261C12.5024 13.2919 12.4366 13.4508 12.3194 13.568C12.2022 13.6853 12.0432 13.7511 11.8774 13.7511H4.37744C4.21168 13.7511 4.05271 13.6853 3.9355 13.568C3.81829 13.4508 3.75244 13.2919 3.75244 13.1261Z" fill="white" fill-opacity="0.7"/>
</svg>
