<svg width="24" height="24" viewBox="0 0 24 24" fill="none" xmlns="http://www.w3.org/2000/svg">
<path fill-rule="evenodd" clip-rule="evenodd" d="M1.57788 13.4283C1.57788 7.68034 6.25413 3.00334 12.0029 3.00334C17.7516 3.00334 22.4279 7.68034 22.4271 13.4261C22.4271 16.2093 21.3419 18.8261 19.3716 20.7963C19.2396 20.9283 19.0671 20.9943 18.8946 20.9943C18.7236 20.9943 18.5534 20.9291 18.4221 20.8001C18.4214 20.7993 18.4199 20.8001 18.4191 20.7993L17.3256 19.7051C17.0616 19.4418 17.0616 19.0143 17.3256 18.7503C17.5896 18.4863 18.0164 18.4863 18.2804 18.7503L18.8721 19.3421C20.1479 17.8661 20.9024 16.0458 21.0449 14.1026H20.2056C19.8329 14.1026 19.5306 13.8003 19.5306 13.4276C19.5306 13.0548 19.8329 12.7526 20.2056 12.7526H21.0434C20.8956 10.7583 20.1044 8.94409 18.8714 7.51459L18.2804 8.10559C18.1484 8.23759 17.9751 8.30359 17.8026 8.30359C17.6301 8.30359 17.4576 8.23759 17.3256 8.10559C17.0624 7.84234 17.0624 7.41484 17.3256 7.15084L17.9166 6.55984C16.4871 5.32684 14.6721 4.53559 12.6779 4.38784V5.22559C12.6779 5.59834 12.3756 5.90059 12.0029 5.90059C11.6301 5.90059 11.3279 5.59834 11.3279 5.22559V4.38784C9.33363 4.53559 7.51863 5.32684 6.08913 6.55984L6.67938 7.15234C6.94338 7.41559 6.94338 7.84309 6.67938 8.10709C6.54738 8.23909 6.37563 8.30509 6.20238 8.30509C6.02913 8.30509 5.85663 8.23909 5.72463 8.10709L5.13363 7.51609C3.90138 8.94559 3.10938 10.7598 2.96163 12.7541H3.80013C4.17288 12.7541 4.47513 13.0563 4.47513 13.4291C4.47513 13.8018 4.17288 14.1041 3.80013 14.1041H2.96088C3.10338 16.0473 3.85788 17.8676 5.13363 19.3436L5.72538 18.7518C5.98938 18.4878 6.41688 18.4886 6.68013 18.7518C6.94338 19.0151 6.94338 19.4426 6.68013 19.7066L5.58663 20.8008C5.58438 20.8027 5.58213 20.8036 5.57988 20.8046C5.57763 20.8055 5.57538 20.8065 5.57313 20.8083C5.30913 21.0588 4.89288 21.0581 4.63338 20.7986C2.66313 18.8283 1.57788 16.2116 1.57788 13.4283ZM13.1676 12.2118L16.1856 10.9541C16.5291 10.8101 16.9244 10.9743 17.0676 11.3186C17.2116 11.6621 17.0489 12.0581 16.7046 12.2013L13.6874 13.4583C13.6716 14.3763 12.9246 15.1166 12.0029 15.1166C11.0706 15.1166 10.3154 14.3613 10.3154 13.4291C10.3154 12.4968 11.0706 11.7416 12.0029 11.7416C12.4559 11.7416 12.8646 11.9216 13.1676 12.2118Z" fill="#ADB5BD"/>
</svg>
