<svg width="21" height="20" viewBox="0 0 21 20" fill="none" xmlns="http://www.w3.org/2000/svg">
<path d="M10.0024 0.667809L10.4358 0.161142C10.315 0.0578562 10.1613 0.00109863 10.0024 0.00109863C9.84354 0.00109863 9.68986 0.0578562 9.56911 0.161142L10.0024 0.667809ZM0.669108 8.66781L0.235775 8.16114L0.00244141 8.36114V8.66781H0.669108ZM7.33577 19.3345V20.0011C7.51259 20.0011 7.68216 19.9309 7.80718 19.8059C7.9322 19.6809 8.00244 19.5113 8.00244 19.3345H7.33577ZM12.6691 19.3345H12.0024C12.0024 19.5113 12.0727 19.6809 12.1977 19.8059C12.3227 19.9309 12.4923 20.0011 12.6691 20.0011V19.3345ZM19.3358 8.66781H20.0024V8.36114L19.7691 8.16114L19.3358 8.66781ZM2.00244 20.0011H7.33577V18.6678H2.00244V20.0011ZM19.7691 8.16114L10.4358 0.161142L9.56911 1.17448L18.9024 9.17448L19.7691 8.16114ZM9.56911 0.161142L0.235775 8.16114L1.10244 9.17448L10.4358 1.17448L9.56911 0.161142ZM8.00244 19.3345V15.3345H6.66911V19.3345H8.00244ZM12.0024 15.3345V19.3345H13.3358V15.3345H12.0024ZM12.6691 20.0011H18.0024V18.6678H12.6691V20.0011ZM20.0024 18.0011V8.66781H18.6691V18.0011H20.0024ZM0.00244141 8.66781V18.0011H1.33577V8.66781H0.00244141ZM10.0024 13.3345C10.5329 13.3345 11.0416 13.5452 11.4167 13.9203C11.7917 14.2953 12.0024 14.804 12.0024 15.3345H13.3358C13.3358 14.4504 12.9846 13.6026 12.3595 12.9775C11.7343 12.3523 10.8865 12.0011 10.0024 12.0011V13.3345ZM10.0024 12.0011C9.11839 12.0011 8.27054 12.3523 7.64542 12.9775C7.0203 13.6026 6.66911 14.4504 6.66911 15.3345H8.00244C8.00244 14.804 8.21316 14.2953 8.58823 13.9203C8.9633 13.5452 9.47201 13.3345 10.0024 13.3345V12.0011ZM18.0024 20.0011C18.5329 20.0011 19.0416 19.7904 19.4167 19.4154C19.7917 19.0403 20.0024 18.5316 20.0024 18.0011H18.6691C18.6691 18.178 18.5989 18.3475 18.4738 18.4725C18.3488 18.5976 18.1793 18.6678 18.0024 18.6678V20.0011ZM2.00244 18.6678C1.82563 18.6678 1.65606 18.5976 1.53104 18.4725C1.40601 18.3475 1.33577 18.178 1.33577 18.0011H0.00244141C0.00244141 18.5316 0.213155 19.0403 0.588228 19.4154C0.963301 19.7904 1.47201 20.0011 2.00244 20.0011V18.6678Z" fill="white" fill-opacity="0.7"/>
</svg>
