<svg width="21" height="20" viewBox="0 0 21 20" fill="none" xmlns="http://www.w3.org/2000/svg">
<path d="M7.50244 1.2511H1.25244V18.7511H7.50244V1.2511ZM18.7524 1.2511H12.5024V7.5011H18.7524V1.2511ZM18.7524 12.5011V18.7511H12.5024V12.5011H18.7524ZM0.00244141 1.2511C0.00244141 0.919578 0.134137 0.601636 0.368558 0.367215C0.602978 0.132795 0.920921 0.00109863 1.25244 0.00109863H7.50244C7.83396 0.00109863 8.1519 0.132795 8.38632 0.367215C8.62074 0.601636 8.75244 0.919578 8.75244 1.2511V18.7511C8.75244 19.0826 8.62074 19.4006 8.38632 19.635C8.1519 19.8694 7.83396 20.0011 7.50244 20.0011H1.25244C0.920921 20.0011 0.602978 19.8694 0.368558 19.635C0.134137 19.4006 0.00244141 19.0826 0.00244141 18.7511V1.2511ZM11.2524 1.2511C11.2524 0.919578 11.3841 0.601636 11.6186 0.367215C11.853 0.132795 12.1709 0.00109863 12.5024 0.00109863H18.7524C19.084 0.00109863 19.4019 0.132795 19.6363 0.367215C19.8707 0.601636 20.0024 0.919578 20.0024 1.2511V7.5011C20.0024 7.83262 19.8707 8.15056 19.6363 8.38498C19.4019 8.6194 19.084 8.7511 18.7524 8.7511H12.5024C12.1709 8.7511 11.853 8.6194 11.6186 8.38498C11.3841 8.15056 11.2524 7.83262 11.2524 7.5011V1.2511ZM12.5024 11.2511C12.1709 11.2511 11.853 11.3828 11.6186 11.6172C11.3841 11.8516 11.2524 12.1696 11.2524 12.5011V18.7511C11.2524 19.0826 11.3841 19.4006 11.6186 19.635C11.853 19.8694 12.1709 20.0011 12.5024 20.0011H18.7524C19.084 20.0011 19.4019 19.8694 19.6363 19.635C19.8707 19.4006 20.0024 19.0826 20.0024 18.7511V12.5011C20.0024 12.1696 19.8707 11.8516 19.6363 11.6172C19.4019 11.3828 19.084 11.2511 18.7524 11.2511H12.5024Z" fill="white" fill-opacity="0.7"/>
</svg>
