<svg width="21" height="21" viewBox="0 0 21 21" fill="none" xmlns="http://www.w3.org/2000/svg">
<path d="M14.6798 12.9311C15.8902 11.2795 16.4323 9.23171 16.1977 7.19754C15.9631 5.16336 14.9691 3.29278 13.4145 1.96001C11.86 0.627253 9.85953 -0.0693934 7.81339 0.00944807C5.76725 0.0882895 3.82632 0.936805 2.37893 2.38524C0.931532 3.83367 0.0844061 5.7752 0.00702887 7.82139C-0.0703484 9.86759 0.62773 11.8676 1.9616 13.4212C3.29548 14.9748 5.16677 15.9674 7.20112 16.2006C9.23546 16.4337 11.2828 15.8902 12.9336 14.6786H12.9323C12.9698 14.7286 13.0098 14.7761 13.0548 14.8224L17.8673 19.6349C18.1017 19.8694 18.4197 20.0012 18.7513 20.0014C19.0829 20.0015 19.4009 19.8699 19.6355 19.6355C19.87 19.4011 20.0019 19.0831 20.002 18.7515C20.0021 18.42 19.8705 18.1019 19.6361 17.8674L14.8236 13.0549C14.7789 13.0096 14.7308 12.9678 14.6798 12.9299V12.9311ZM15.0023 8.1261C15.0023 9.02894 14.8245 9.92294 14.479 10.7571C14.1335 11.5912 13.6271 12.3491 12.9887 12.9875C12.3503 13.6259 11.5924 14.1323 10.7583 14.4778C9.92418 14.8233 9.03018 15.0011 8.12734 15.0011C7.2245 15.0011 6.33051 14.8233 5.49639 14.4778C4.66228 14.1323 3.90439 13.6259 3.26598 12.9875C2.62758 12.3491 2.12117 11.5912 1.77567 10.7571C1.43017 9.92294 1.25234 9.02894 1.25234 8.1261C1.25234 6.30274 1.97667 4.55406 3.26598 3.26474C4.5553 1.97543 6.30398 1.2511 8.12734 1.2511C9.95071 1.2511 11.6994 1.97543 12.9887 3.26474C14.278 4.55406 15.0023 6.30274 15.0023 8.1261Z" fill="#6C757D"/>
</svg>
