<svg width="15" height="14" viewBox="0 0 15 14" fill="none" xmlns="http://www.w3.org/2000/svg">
<path d="M13.0228 2.62512C13.1389 2.62512 13.2501 2.67122 13.3322 2.75326C13.4142 2.83531 13.4603 2.94659 13.4603 3.06262V10.9376C13.4603 11.0537 13.4142 11.1649 13.3322 11.247C13.2501 11.329 13.1389 11.3751 13.0228 11.3751H1.64783C1.53179 11.3751 1.42052 11.329 1.33847 11.247C1.25642 11.1649 1.21033 11.0537 1.21033 10.9376V3.06262C1.21033 2.94659 1.25642 2.83531 1.33847 2.75326C1.42052 2.67122 1.53179 2.62512 1.64783 2.62512H13.0228ZM1.64783 1.75012C1.29973 1.75012 0.965891 1.8884 0.719749 2.13454C0.473608 2.38069 0.335327 2.71453 0.335327 3.06262V10.9376C0.335327 11.2857 0.473608 11.6196 0.719749 11.8657C0.965891 12.1118 1.29973 12.2501 1.64783 12.2501H13.0228C13.3709 12.2501 13.7048 12.1118 13.9509 11.8657C14.197 11.6196 14.3353 11.2857 14.3353 10.9376V3.06262C14.3353 2.71453 14.197 2.38069 13.9509 2.13454C13.7048 1.8884 13.3709 1.75012 13.0228 1.75012H1.64783Z" fill="#6C757D"/>
<path d="M2.96033 7.43762C2.96033 7.32159 3.00642 7.21031 3.08847 7.12826C3.17052 7.04622 3.2818 7.00012 3.39783 7.00012H11.2728C11.3889 7.00012 11.5001 7.04622 11.5822 7.12826C11.6642 7.21031 11.7103 7.32159 11.7103 7.43762C11.7103 7.55365 11.6642 7.66493 11.5822 7.74698C11.5001 7.82903 11.3889 7.87512 11.2728 7.87512H3.39783C3.2818 7.87512 3.17052 7.82903 3.08847 7.74698C3.00642 7.66493 2.96033 7.55365 2.96033 7.43762ZM2.96033 9.18762C2.96033 9.07159 3.00642 8.96031 3.08847 8.87826C3.17052 8.79622 3.2818 8.75012 3.39783 8.75012H8.64783C8.76386 8.75012 8.87514 8.79622 8.95719 8.87826C9.03923 8.96031 9.08533 9.07159 9.08533 9.18762C9.08533 9.30365 9.03923 9.41493 8.95719 9.49698C8.87514 9.57903 8.76386 9.62512 8.64783 9.62512H3.39783C3.2818 9.62512 3.17052 9.57903 3.08847 9.49698C3.00642 9.41493 2.96033 9.30365 2.96033 9.18762ZM2.96033 4.81262C2.96033 4.69659 3.00642 4.58531 3.08847 4.50326C3.17052 4.42122 3.2818 4.37512 3.39783 4.37512H11.2728C11.3889 4.37512 11.5001 4.42122 11.5822 4.50326C11.6642 4.58531 11.7103 4.69659 11.7103 4.81262V5.68762C11.7103 5.80365 11.6642 5.91493 11.5822 5.99698C11.5001 6.07903 11.3889 6.12512 11.2728 6.12512H3.39783C3.2818 6.12512 3.17052 6.07903 3.08847 5.99698C3.00642 5.91493 2.96033 5.80365 2.96033 5.68762V4.81262Z" fill="#6C757D"/>
</svg>
