<svg width="20" height="20" viewBox="0 0 20 20" fill="none" xmlns="http://www.w3.org/2000/svg">
<path d="M12.5024 16.8761C12.5024 17.0419 12.5683 17.2008 12.6855 17.318C12.8027 17.4353 12.9617 17.5011 13.1274 17.5011H14.3774C14.5432 17.5011 14.7022 17.4353 14.8194 17.318C14.9366 17.2008 15.0024 17.0419 15.0024 16.8761V9.3761C15.0024 9.21034 14.9366 9.05137 14.8194 8.93416C14.7022 8.81695 14.5432 8.7511 14.3774 8.7511H13.1274C12.9617 8.7511 12.8027 8.81695 12.6855 8.93416C12.5683 9.05137 12.5024 9.21034 12.5024 9.3761V16.8761ZM9.37744 17.5011C9.21168 17.5011 9.05271 17.4353 8.9355 17.318C8.81829 17.2008 8.75244 17.0419 8.75244 16.8761V11.8761C8.75244 11.7103 8.81829 11.5514 8.9355 11.4342C9.05271 11.3169 9.21168 11.2511 9.37744 11.2511H10.6274C10.7932 11.2511 10.9522 11.3169 11.0694 11.4342C11.1866 11.5514 11.2524 11.7103 11.2524 11.8761V16.8761C11.2524 17.0419 11.1866 17.2008 11.0694 17.318C10.9522 17.4353 10.7932 17.5011 10.6274 17.5011H9.37744ZM5.62744 17.5011C5.46168 17.5011 5.30271 17.4353 5.1855 17.318C5.06829 17.2008 5.00244 17.0419 5.00244 16.8761V14.3761C5.00244 14.2103 5.06829 14.0514 5.1855 13.9342C5.30271 13.8169 5.46168 13.7511 5.62744 13.7511H6.87744C7.0432 13.7511 7.20217 13.8169 7.31938 13.9342C7.43659 14.0514 7.50244 14.2103 7.50244 14.3761V16.8761C7.50244 17.0419 7.43659 17.2008 7.31938 17.318C7.20217 17.4353 7.0432 17.5011 6.87744 17.5011H5.62744Z" fill="white" fill-opacity="0.7"/>
<path d="M17.5024 17.5011V5.6261L11.8774 0.00109863H5.00244C4.3394 0.00109863 3.70352 0.264491 3.23467 0.733332C2.76583 1.20217 2.50244 1.83806 2.50244 2.5011V17.5011C2.50244 18.1641 2.76583 18.8 3.23467 19.2689C3.70352 19.7377 4.3394 20.0011 5.00244 20.0011H15.0024C15.6655 20.0011 16.3014 19.7377 16.7702 19.2689C17.239 18.8 17.5024 18.1641 17.5024 17.5011ZM11.8774 3.7511C11.8774 4.24838 12.075 4.72529 12.4266 5.07692C12.7782 5.42855 13.2552 5.6261 13.7524 5.6261H16.2524V17.5011C16.2524 17.8326 16.1207 18.1506 15.8863 18.385C15.6519 18.6194 15.334 18.7511 15.0024 18.7511H5.00244C4.67092 18.7511 4.35298 18.6194 4.11856 18.385C3.88414 18.1506 3.75244 17.8326 3.75244 17.5011V2.5011C3.75244 2.16958 3.88414 1.85164 4.11856 1.61722C4.35298 1.38279 4.67092 1.2511 5.00244 1.2511H11.8774V3.7511Z" fill="white" fill-opacity="0.7"/>
</svg>
