<svg width="13" height="12" viewBox="0 0 13 12" fill="none" xmlns="http://www.w3.org/2000/svg">
<path d="M6.3352 3.56574C6.01549 3.56574 5.69892 3.62871 5.40355 3.75105C5.10819 3.8734 4.83981 4.05272 4.61375 4.27878C4.38768 4.50485 4.20836 4.77323 4.08601 5.06859C3.96367 5.36396 3.9007 5.68053 3.9007 6.00024C3.9007 6.31994 3.96367 6.63651 4.08601 6.93188C4.20836 7.22725 4.38768 7.49562 4.61375 7.72169C4.83981 7.94775 5.10819 8.12708 5.40355 8.24942C5.69892 8.37177 6.01549 8.43474 6.3352 8.43474C6.98087 8.43474 7.60009 8.17825 8.05665 7.72169C8.51321 7.26513 8.7697 6.64591 8.7697 6.00024C8.7697 5.35457 8.51321 4.73534 8.05665 4.27878C7.60009 3.82223 6.98087 3.56574 6.3352 3.56574ZM4.6507 6.00024C4.6507 5.55348 4.82817 5.12502 5.14408 4.80911C5.45998 4.49321 5.88844 4.31574 6.3352 4.31574C6.78195 4.31574 7.21041 4.49321 7.52632 4.80911C7.84222 5.12502 8.0197 5.55348 8.0197 6.00024C8.0197 6.44699 7.84222 6.87545 7.52632 7.19136C7.21041 7.50726 6.78195 7.68474 6.3352 7.68474C5.88844 7.68474 5.45998 7.50726 5.14408 7.19136C4.82817 6.87545 4.6507 6.44699 4.6507 6.00024Z" fill="#984C0C"/>
<path d="M7.6822 1.00749C7.28695 -0.335015 5.38345 -0.335015 4.9882 1.00749L4.9177 1.24674C4.89009 1.34045 4.84187 1.4268 4.77656 1.49945C4.71125 1.57211 4.63051 1.62923 4.54025 1.66662C4.45 1.70402 4.35252 1.72075 4.25496 1.71557C4.1574 1.7104 4.06224 1.68346 3.97645 1.63674L3.75745 1.51674C2.52745 0.847736 1.1827 2.19324 1.85245 3.42249L1.9717 3.64149C2.01843 3.72728 2.04536 3.82244 2.05053 3.92C2.05571 4.01756 2.03898 4.11504 2.00159 4.20529C1.96419 4.29555 1.90707 4.37629 1.83442 4.4416C1.76176 4.50691 1.67541 4.55513 1.5817 4.58274L1.34245 4.65324C-5.37305e-05 5.04849 -5.37305e-05 6.95199 1.34245 7.34724L1.5817 7.41774C1.67541 7.44534 1.76176 7.49356 1.83442 7.55887C1.90707 7.62418 1.96419 7.70493 2.00159 7.79518C2.03898 7.88543 2.05571 7.98291 2.05053 8.08047C2.04536 8.17803 2.01843 8.27319 1.9717 8.35899L1.8517 8.57799C1.1827 9.80799 2.52745 11.1535 3.75745 10.483L3.97645 10.3637C4.06224 10.317 4.1574 10.2901 4.25496 10.2849C4.35252 10.2797 4.45 10.2965 4.54025 10.3338C4.63051 10.3712 4.71125 10.4284 4.77656 10.501C4.84187 10.5737 4.89009 10.66 4.9177 10.7537L4.9882 10.993C5.38345 12.3355 7.28695 12.3355 7.6822 10.993L7.7527 10.7537C7.7803 10.66 7.82852 10.5737 7.89383 10.501C7.95915 10.4284 8.03989 10.3712 8.13014 10.3338C8.22039 10.2965 8.31787 10.2797 8.41543 10.2849C8.51299 10.2901 8.60815 10.317 8.69395 10.3637L8.91295 10.4837C10.1429 11.1535 11.4884 9.80724 10.8179 8.57799L10.6987 8.35899C10.652 8.27319 10.625 8.17803 10.6199 8.08047C10.6147 7.98291 10.6314 7.88543 10.6688 7.79518C10.7062 7.70493 10.7633 7.62418 10.836 7.55887C10.9086 7.49356 10.995 7.44534 11.0887 7.41774L11.3279 7.34724C12.6704 6.95199 12.6704 5.04849 11.3279 4.65324L11.0887 4.58274C10.995 4.55513 10.9086 4.50691 10.836 4.4416C10.7633 4.37629 10.7062 4.29555 10.6688 4.20529C10.6314 4.11504 10.6147 4.01756 10.6199 3.92C10.625 3.82244 10.652 3.72728 10.6987 3.64149L10.8187 3.42249C11.4884 2.19249 10.1422 0.847735 8.91295 1.51749L8.69395 1.63674C8.60815 1.68346 8.51299 1.7104 8.41543 1.71557C8.31787 1.72075 8.22039 1.70402 8.13014 1.66662C8.03989 1.62923 7.95915 1.57211 7.89383 1.49945C7.82852 1.4268 7.7803 1.34045 7.7527 1.24674L7.6822 1.00749ZM5.70745 1.21974C5.89195 0.593485 6.77845 0.593485 6.96295 1.21974L7.03345 1.45899C7.09271 1.66005 7.19622 1.8453 7.33639 2.00116C7.47656 2.15702 7.64983 2.27953 7.8435 2.35972C8.03718 2.43991 8.24634 2.47574 8.45566 2.46458C8.66498 2.45342 8.86915 2.39556 9.0532 2.29524L9.27145 2.17524C9.84445 1.86399 10.4714 2.49024 10.1594 3.06399L10.0402 3.28299C9.94003 3.46706 9.88231 3.67121 9.87127 3.88048C9.86023 4.08975 9.89616 4.29884 9.97641 4.49242C10.0567 4.68601 10.1792 4.85919 10.3351 4.99927C10.4909 5.13935 10.6762 5.24278 10.8772 5.30199L11.1157 5.37249C11.7419 5.55699 11.7419 6.44349 11.1157 6.62799L10.8764 6.69849C10.6754 6.75775 10.4901 6.86126 10.3343 7.00143C10.1784 7.1416 10.0559 7.31487 9.97571 7.50854C9.89553 7.70222 9.8597 7.91138 9.87086 8.1207C9.88201 8.33002 9.93987 8.53419 10.0402 8.71824L10.1602 8.93649C10.4714 9.50949 9.8452 10.1365 9.27145 9.82449L9.0532 9.70524C8.8691 9.60492 8.66488 9.54709 8.45552 9.53598C8.24616 9.52487 8.03697 9.56076 7.84328 9.64103C7.6496 9.72129 7.47634 9.84389 7.33621 9.99983C7.19608 10.1558 7.09263 10.3411 7.03345 10.5422L6.96295 10.7807C6.77845 11.407 5.89195 11.407 5.70745 10.7807L5.63695 10.5415C5.57766 10.3405 5.47416 10.1554 5.33404 9.9996C5.19393 9.84382 5.02074 9.72135 4.82716 9.64117C4.63359 9.561 4.42453 9.52514 4.2153 9.53622C4.00607 9.54731 3.80197 9.60505 3.61795 9.70524L3.39895 9.82524C2.82595 10.1365 2.19895 9.51024 2.51095 8.93649L2.6302 8.71824C2.73066 8.53416 2.78863 8.32992 2.79987 8.12051C2.8111 7.9111 2.7753 7.70184 2.6951 7.50807C2.61491 7.3143 2.49234 7.14094 2.33641 7.00072C2.18047 6.8605 1.99512 6.75698 1.79395 6.69774L1.5547 6.62724C0.928446 6.44274 0.928446 5.55624 1.5547 5.37174L1.79395 5.30124C1.9948 5.24192 2.17985 5.13844 2.33555 4.99838C2.49126 4.85831 2.61367 4.68521 2.69384 4.49173C2.774 4.29825 2.80989 4.08929 2.79888 3.88015C2.78787 3.67101 2.73024 3.46698 2.6302 3.28299L2.5102 3.06399C2.19895 2.49099 2.8252 1.86399 3.39895 2.17599L3.61795 2.29524C3.80197 2.39542 4.00607 2.45317 4.2153 2.46425C4.42453 2.47533 4.63359 2.43948 4.82716 2.3593C5.02074 2.27912 5.19393 2.15666 5.33404 2.00088C5.47416 1.8451 5.57766 1.65994 5.63695 1.45899L5.70745 1.21974Z" fill="#984C0C"/>
</svg>
