<svg width="14" height="14" viewBox="0 0 14 14" fill="none" xmlns="http://www.w3.org/2000/svg">
<path d="M2.62695 1.75012V5.76287L8.75195 11.8879L12.7647 7.87512L6.6397 1.75012H2.62695ZM1.75195 1.75012C1.75195 1.51806 1.84414 1.2955 2.00823 1.1314C2.17233 0.967309 2.39489 0.875122 2.62695 0.875122H6.6397C6.87175 0.875172 7.09427 0.967391 7.25833 1.1315L13.3833 7.2565C13.5474 7.42058 13.6395 7.6431 13.6395 7.87512C13.6395 8.10714 13.5474 8.32966 13.3833 8.49375L9.37058 12.5065C9.20649 12.6705 8.98397 12.7627 8.75195 12.7627C8.51993 12.7627 8.29742 12.6705 8.13333 12.5065L2.00833 6.3815C1.84422 6.21744 1.752 5.99492 1.75195 5.76287V1.75012Z" fill="#6C757D"/>
<path d="M4.81445 4.37512C4.69842 4.37512 4.58714 4.32903 4.50509 4.24698C4.42305 4.16493 4.37695 4.05365 4.37695 3.93762C4.37695 3.82159 4.42305 3.71031 4.50509 3.62826C4.58714 3.54622 4.69842 3.50012 4.81445 3.50012C4.93049 3.50012 5.04177 3.54622 5.12381 3.62826C5.20586 3.71031 5.25195 3.82159 5.25195 3.93762C5.25195 4.05365 5.20586 4.16493 5.12381 4.24698C5.04177 4.32903 4.93049 4.37512 4.81445 4.37512ZM4.81445 5.25012C5.16255 5.25012 5.49639 5.11184 5.74253 4.8657C5.98867 4.61956 6.12695 4.28572 6.12695 3.93762C6.12695 3.58953 5.98867 3.25569 5.74253 3.00954C5.49639 2.7634 5.16255 2.62512 4.81445 2.62512C4.46636 2.62512 4.13252 2.7634 3.88638 3.00954C3.64023 3.25569 3.50195 3.58953 3.50195 3.93762C3.50195 4.28572 3.64023 4.61956 3.88638 4.8657C4.13252 5.11184 4.46636 5.25012 4.81445 5.25012ZM0.876953 6.20037C0.877003 6.43242 0.969222 6.65494 1.13333 6.819L7.6582 13.3439L7.62058 13.3815C7.45649 13.5455 7.23397 13.6377 7.00195 13.6377C6.76993 13.6377 6.54742 13.5455 6.38333 13.3815L0.258328 7.2565C0.0942224 7.09244 0.00200268 6.86992 0.00195312 6.63787V2.62512C0.00195313 2.39306 0.0941404 2.1705 0.258235 2.0064C0.422329 1.84231 0.644889 1.75012 0.876953 1.75012V6.20037Z" fill="#6C757D"/>
</svg>
