<svg width="14" height="14" viewBox="0 0 14 14" fill="none" xmlns="http://www.w3.org/2000/svg">
<path d="M7.00195 7.00012C7.69815 7.00012 8.36583 6.72356 8.85811 6.23128C9.35039 5.73899 9.62695 5.07132 9.62695 4.37512C9.62695 3.67893 9.35039 3.01125 8.85811 2.51897C8.36583 2.02668 7.69815 1.75012 7.00195 1.75012C6.30576 1.75012 5.63808 2.02668 5.1458 2.51897C4.65351 3.01125 4.37695 3.67893 4.37695 4.37512C4.37695 5.07132 4.65351 5.73899 5.1458 6.23128C5.63808 6.72356 6.30576 7.00012 7.00195 7.00012V7.00012ZM8.75195 4.37512C8.75195 4.83925 8.56758 5.28437 8.23939 5.61256C7.9112 5.94075 7.46608 6.12512 7.00195 6.12512C6.53782 6.12512 6.0927 5.94075 5.76452 5.61256C5.43633 5.28437 5.25195 4.83925 5.25195 4.37512C5.25195 3.91099 5.43633 3.46587 5.76452 3.13769C6.0927 2.8095 6.53782 2.62512 7.00195 2.62512C7.46608 2.62512 7.9112 2.8095 8.23939 3.13769C8.56758 3.46587 8.75195 3.91099 8.75195 4.37512V4.37512ZM12.252 11.3751C12.252 12.2501 11.377 12.2501 11.377 12.2501H2.62695C2.62695 12.2501 1.75195 12.2501 1.75195 11.3751C1.75195 10.5001 2.62695 7.87512 7.00195 7.87512C11.377 7.87512 12.252 10.5001 12.252 11.3751ZM11.377 11.3716C11.3761 11.1564 11.2422 10.5089 10.649 9.91562C10.0785 9.34512 9.00483 8.75012 7.00195 8.75012C4.9982 8.75012 3.92545 9.34512 3.35495 9.91562C2.7617 10.5089 2.6287 11.1564 2.62695 11.3716H11.377Z" fill="#6C757D"/>
</svg>
