<svg width="15" height="15" viewBox="0 0 15 15" fill="none" xmlns="http://www.w3.org/2000/svg">
<path d="M7.66858 13.6251C6.04413 13.6251 4.48621 12.9798 3.33755 11.8312C2.18889 10.6825 1.54358 9.12457 1.54358 7.50012C1.54358 5.87567 2.18889 4.31775 3.33755 3.16909C4.48621 2.02043 6.04413 1.37512 7.66858 1.37512C9.29303 1.37512 10.8509 2.02043 11.9996 3.16909C13.1483 4.31775 13.7936 5.87567 13.7936 7.50012C13.7936 9.12457 13.1483 10.6825 11.9996 11.8312C10.8509 12.9798 9.29303 13.6251 7.66858 13.6251ZM7.66858 14.5001C9.52509 14.5001 11.3056 13.7626 12.6183 12.4499C13.9311 11.1371 14.6686 9.35664 14.6686 7.50012C14.6686 5.64361 13.9311 3.86313 12.6183 2.55037C11.3056 1.23762 9.52509 0.500122 7.66858 0.500122C5.81206 0.500122 4.03159 1.23762 2.71883 2.55037C1.40608 3.86313 0.668579 5.64361 0.668579 7.50012C0.668579 9.35664 1.40608 11.1371 2.71883 12.4499C4.03159 13.7626 5.81206 14.5001 7.66858 14.5001Z" fill="#6C757D"/>
<path d="M10.2673 4.84887C10.2611 4.85491 10.2552 4.86134 10.2498 4.86812L7.21095 8.74L5.37958 6.90775C5.25518 6.79183 5.09064 6.72872 4.92062 6.73172C4.75061 6.73472 4.5884 6.80359 4.46816 6.92383C4.34792 7.04406 4.27905 7.20628 4.27605 7.37629C4.27305 7.5463 4.33616 7.71084 4.45208 7.83525L6.76733 10.1514C6.8297 10.2136 6.90397 10.2627 6.98571 10.2956C7.06746 10.3286 7.155 10.3447 7.24311 10.343C7.33122 10.3414 7.4181 10.3221 7.49856 10.2861C7.57903 10.2502 7.65143 10.1984 7.71145 10.1339L11.2045 5.76762C11.3234 5.64279 11.3884 5.47616 11.3855 5.30376C11.3825 5.13136 11.3119 4.96704 11.1888 4.84633C11.0656 4.72562 10.8999 4.65822 10.7275 4.65869C10.5551 4.65917 10.3898 4.72748 10.2673 4.84887Z" fill="#6C757D"/>
</svg>
