<svg width="14" height="14" viewBox="0 0 14 14" fill="none" xmlns="http://www.w3.org/2000/svg">
<path d="M5.25195 3.93762C5.25195 4.28572 5.11367 4.61956 4.86753 4.8657C4.62139 5.11184 4.28755 5.25012 3.93945 5.25012C3.59136 5.25012 3.25752 5.11184 3.01138 4.8657C2.76523 4.61956 2.62695 4.28572 2.62695 3.93762C2.62695 3.58953 2.76523 3.25569 3.01138 3.00954C3.25752 2.7634 3.59136 2.62512 3.93945 2.62512C4.28755 2.62512 4.62139 2.7634 4.86753 3.00954C5.11367 3.25569 5.25195 3.58953 5.25195 3.93762ZM4.37695 3.93762C4.37695 3.82159 4.33086 3.71031 4.24881 3.62826C4.16676 3.54622 4.05549 3.50012 3.93945 3.50012C3.82342 3.50012 3.71214 3.54622 3.63009 3.62826C3.54805 3.71031 3.50195 3.82159 3.50195 3.93762C3.50195 4.05365 3.54805 4.16493 3.63009 4.24698C3.71214 4.32903 3.82342 4.37512 3.93945 4.37512C4.05549 4.37512 4.16676 4.32903 4.24881 4.24698C4.33086 4.16493 4.37695 4.05365 4.37695 3.93762Z" fill="#6C757D"/>
<path d="M1.75195 0.875122H5.7647C5.99675 0.875172 6.21927 0.967391 6.38333 1.1315L12.5083 7.2565C12.6724 7.42058 12.7645 7.6431 12.7645 7.87512C12.7645 8.10714 12.6724 8.32966 12.5083 8.49375L8.49558 12.5065C8.33149 12.6705 8.10897 12.7627 7.87695 12.7627C7.64493 12.7627 7.42241 12.6705 7.25833 12.5065L1.13333 6.3815C0.969222 6.21744 0.877003 5.99492 0.876953 5.76287V1.75012C0.876953 1.51806 0.96914 1.2955 1.13323 1.1314C1.29733 0.967309 1.51989 0.875122 1.75195 0.875122ZM1.75195 5.76287L7.87695 11.8879L11.8897 7.87512L5.7647 1.75012H1.75195V5.76287Z" fill="#6C757D"/>
</svg>
