<svg width="21" height="20" viewBox="0 0 21 20" fill="none" xmlns="http://www.w3.org/2000/svg">
<path d="M6.25244 10.0011C6.25244 10.3326 6.12075 10.6506 5.88632 10.885C5.6519 11.1194 5.33396 11.2511 5.00244 11.2511C4.67092 11.2511 4.35298 11.1194 4.11856 10.885C3.88414 10.6506 3.75244 10.3326 3.75244 10.0011C3.75244 9.66958 3.88414 9.35164 4.11856 9.11722C4.35298 8.88279 4.67092 8.7511 5.00244 8.7511C5.33396 8.7511 5.6519 8.88279 5.88632 9.11722C6.12075 9.35164 6.25244 9.66958 6.25244 10.0011ZM11.2524 10.0011C11.2524 10.3326 11.1207 10.6506 10.8863 10.885C10.6519 11.1194 10.334 11.2511 10.0024 11.2511C9.67092 11.2511 9.35298 11.1194 9.11856 10.885C8.88414 10.6506 8.75244 10.3326 8.75244 10.0011C8.75244 9.66958 8.88414 9.35164 9.11856 9.11722C9.35298 8.88279 9.67092 8.7511 10.0024 8.7511C10.334 8.7511 10.6519 8.88279 10.8863 9.11722C11.1207 9.35164 11.2524 9.66958 11.2524 10.0011ZM15.0024 11.2511C15.334 11.2511 15.6519 11.1194 15.8863 10.885C16.1207 10.6506 16.2524 10.3326 16.2524 10.0011C16.2524 9.66958 16.1207 9.35164 15.8863 9.11722C15.6519 8.88279 15.334 8.7511 15.0024 8.7511C14.6709 8.7511 14.353 8.88279 14.1186 9.11722C13.8841 9.35164 13.7524 9.66958 13.7524 10.0011C13.7524 10.3326 13.8841 10.6506 14.1186 10.885C14.353 11.1194 14.6709 11.2511 15.0024 11.2511Z" fill="#6C757D"/>
<path d="M2.70869 19.7548L2.73369 19.7498C5.02119 19.2961 6.41869 18.6973 7.06869 18.3686C8.02567 18.6238 9.01201 18.7524 10.0024 18.7511C15.5249 18.7511 20.0024 14.8336 20.0024 10.0011C20.0024 5.1686 15.5249 1.2511 10.0024 1.2511C4.47994 1.2511 0.00244141 5.1686 0.00244141 10.0011C0.00244141 12.2011 0.931191 14.2136 2.46494 15.7511C2.35764 16.7387 2.13788 17.7109 1.80994 18.6486L1.80619 18.6623C1.713 18.9309 1.61128 19.1965 1.50119 19.4586C1.40244 19.6911 1.59369 19.9511 1.84244 19.9111C2.13202 19.8637 2.42081 19.8116 2.70869 19.7548ZM3.70869 15.8698C3.7262 15.6868 3.70313 15.5022 3.64112 15.3292C3.57911 15.1561 3.47969 14.9988 3.34994 14.8686C2.02494 13.5386 1.25244 11.8361 1.25244 10.0011C1.25244 6.0111 5.00744 2.5011 10.0024 2.5011C14.9974 2.5011 18.7524 6.0111 18.7524 10.0011C18.7524 13.9923 14.9974 17.5011 10.0024 17.5011C9.12132 17.5024 8.24383 17.3881 7.39244 17.1611C7.09491 17.0814 6.77843 17.1143 6.50369 17.2536C6.01994 17.4986 4.95369 17.9661 3.21119 18.3698C3.45429 17.5538 3.62084 16.7168 3.70869 15.8698Z" fill="#6C757D"/>
</svg>
