<svg width="21" height="20" viewBox="0 0 21 20" fill="none" xmlns="http://www.w3.org/2000/svg">
<path d="M10.2962 1.94986C10.2057 1.90171 10.1049 1.87653 10.0024 1.87653C9.89998 1.87653 9.7991 1.90171 9.70867 1.94986L0.333672 6.94986C0.233832 7.0032 0.150353 7.08266 0.0921496 7.17975C0.0339461 7.27684 0.00320313 7.38791 0.00320313 7.50111C0.00320313 7.61431 0.0339461 7.72538 0.0921496 7.82247C0.150353 7.91956 0.233832 7.99901 0.333672 8.05236L3.98742 10.0011L0.332422 11.9499C0.232582 12.0032 0.149103 12.0827 0.0908996 12.1798C0.0326961 12.2768 0.00195313 12.3879 0.00195312 12.5011C0.00195312 12.6143 0.0326961 12.7254 0.0908996 12.8225C0.149103 12.9196 0.232582 12.999 0.332422 13.0524L9.70742 18.0524C9.79785 18.1005 9.89873 18.1257 10.0012 18.1257C10.1036 18.1257 10.2045 18.1005 10.2949 18.0524L19.6699 13.0524C19.7698 12.999 19.8532 12.9196 19.9114 12.8225C19.9697 12.7254 20.0004 12.6143 20.0004 12.5011C20.0004 12.3879 19.9697 12.2768 19.9114 12.1798C19.8532 12.0827 19.7698 12.0032 19.6699 11.9499L16.0187 10.0011L19.6712 8.05236C19.771 7.99901 19.8545 7.91956 19.9127 7.82247C19.9709 7.72538 20.0016 7.61431 20.0016 7.50111C20.0016 7.38791 19.9709 7.27684 19.9127 7.17975C19.8545 7.08266 19.771 7.0032 19.6712 6.94986L10.2962 1.94986ZM14.6899 10.7099L18.0499 12.5011L10.0024 16.7924L1.95492 12.5011L5.31492 10.7099L9.70867 13.0524C9.7991 13.1005 9.89998 13.1257 10.0024 13.1257C10.1049 13.1257 10.2057 13.1005 10.2962 13.0524L14.6899 10.7099ZM10.0024 11.7924L1.95492 7.50111L10.0024 3.20986L18.0499 7.50111L10.0024 11.7924Z" fill="white" fill-opacity="0.7"/>
</svg>
