<svg width="21" height="20" viewBox="0 0 21 20" fill="none" xmlns="http://www.w3.org/2000/svg">
<path d="M10.0024 5.6261C7.6818 5.6261 5.4562 6.54797 3.81526 8.18891C2.17431 9.82986 1.25244 12.0555 1.25244 14.3761C1.25244 14.5419 1.18659 14.7008 1.06938 14.818C0.952173 14.9353 0.793202 15.0011 0.627441 15.0011C0.461681 15.0011 0.30271 14.9353 0.1855 14.818C0.0682894 14.7008 0.00244141 14.5419 0.00244141 14.3761C0.00244141 11.7239 1.05601 9.18039 2.93137 7.30503C4.80674 5.42967 7.35028 4.3761 10.0024 4.3761C12.6546 4.3761 15.1981 5.42967 17.0735 7.30503C18.9489 9.18039 20.0024 11.7239 20.0024 14.3761C20.0024 14.5419 19.9366 14.7008 19.8194 14.818C19.7022 14.9353 19.5432 15.0011 19.3774 15.0011C19.2117 15.0011 19.0527 14.9353 18.9355 14.818C18.8183 14.7008 18.7524 14.5419 18.7524 14.3761C18.7524 12.0555 17.8306 9.82986 16.1896 8.18891C14.5487 6.54797 12.3231 5.6261 10.0024 5.6261ZM10.0024 8.1261C8.34484 8.1261 6.75513 8.78458 5.58302 9.95668C4.41092 11.1288 3.75244 12.7185 3.75244 14.3761C3.75244 14.5419 3.68659 14.7008 3.56938 14.818C3.45217 14.9353 3.2932 15.0011 3.12744 15.0011C2.96168 15.0011 2.80271 14.9353 2.6855 14.818C2.56829 14.7008 2.50244 14.5419 2.50244 14.3761C2.50244 13.3912 2.69643 12.4159 3.07334 11.506C3.45026 10.596 4.0027 9.76924 4.69914 9.0728C5.39558 8.37636 6.22237 7.82391 7.13232 7.447C8.04226 7.07009 9.01753 6.8761 10.0024 6.8761C10.9874 6.8761 11.9626 7.07009 12.8726 7.447C13.7825 7.82391 14.6093 8.37636 15.3057 9.0728C16.0022 9.76924 16.5546 10.596 16.9315 11.506C17.3084 12.4159 17.5024 13.3912 17.5024 14.3761C17.5024 14.5419 17.4366 14.7008 17.3194 14.818C17.2022 14.9353 17.0432 15.0011 16.8774 15.0011C16.7117 15.0011 16.5527 14.9353 16.4355 14.818C16.3183 14.7008 16.2524 14.5419 16.2524 14.3761C16.2524 12.7185 15.594 11.1288 14.4219 9.95668C13.2498 8.78458 11.66 8.1261 10.0024 8.1261ZM10.0024 10.6261C9.00788 10.6261 8.05405 11.0212 7.35079 11.7244C6.64753 12.4277 6.25244 13.3815 6.25244 14.3761C6.25244 14.5419 6.18659 14.7008 6.06938 14.818C5.95217 14.9353 5.7932 15.0011 5.62744 15.0011C5.46168 15.0011 5.30271 14.9353 5.1855 14.818C5.06829 14.7008 5.00244 14.5419 5.00244 14.3761C5.00244 13.05 5.52923 11.7782 6.46691 10.8406C7.40459 9.90288 8.67636 9.3761 10.0024 9.3761C11.3285 9.3761 12.6003 9.90288 13.538 10.8406C14.4757 11.7782 15.0024 13.05 15.0024 14.3761C15.0024 14.5419 14.9366 14.7008 14.8194 14.818C14.7022 14.9353 14.5432 15.0011 14.3774 15.0011C14.2117 15.0011 14.0527 14.9353 13.9355 14.818C13.8183 14.7008 13.7524 14.5419 13.7524 14.3761C13.7524 13.3815 13.3574 12.4277 12.6541 11.7244C11.9508 11.0212 10.997 10.6261 10.0024 10.6261ZM10.0024 13.1261C9.67092 13.1261 9.35298 13.2578 9.11856 13.4922C8.88414 13.7266 8.75244 14.0446 8.75244 14.3761C8.75244 14.5419 8.68659 14.7008 8.56938 14.818C8.45217 14.9353 8.2932 15.0011 8.12744 15.0011C7.96168 15.0011 7.80271 14.9353 7.6855 14.818C7.56829 14.7008 7.50244 14.5419 7.50244 14.3761C7.50244 13.7131 7.76583 13.0772 8.23467 12.6083C8.70352 12.1395 9.3394 11.8761 10.0024 11.8761C10.6655 11.8761 11.3014 12.1395 11.7702 12.6083C12.239 13.0772 12.5024 13.7131 12.5024 14.3761C12.5024 14.5419 12.4366 14.7008 12.3194 14.818C12.2022 14.9353 12.0432 15.0011 11.8774 15.0011C11.7117 15.0011 11.5527 14.9353 11.4355 14.818C11.3183 14.7008 11.2524 14.5419 11.2524 14.3761C11.2524 14.0446 11.1207 13.7266 10.8863 13.4922C10.6519 13.2578 10.334 13.1261 10.0024 13.1261Z" fill="white" fill-opacity="0.7"/>
</svg>
