<svg width="20" height="20" viewBox="0 0 20 20" fill="none" xmlns="http://www.w3.org/2000/svg">
<path fill-rule="evenodd" clip-rule="evenodd" d="M5.59623 6.8236C5.24123 6.8236 4.95373 6.52735 5.00873 6.17735C5.35248 4.0511 6.97248 2.5011 9.78373 2.5011C12.5962 2.5011 14.4925 4.2011 14.4925 6.51985C14.4925 8.19985 13.6612 9.37985 12.255 10.2361C10.88 11.0598 10.4875 11.6336 10.4875 12.7486V12.7861C10.4875 12.9519 10.4216 13.1108 10.3044 13.228C10.1872 13.3453 10.0282 13.4111 9.86248 13.4111H8.89998C8.73529 13.4111 8.57726 13.3461 8.46023 13.2303C8.3432 13.1144 8.27662 12.957 8.27498 12.7923L8.27123 12.5423C8.21748 11.0161 8.86748 10.0411 10.3275 9.15235C11.615 8.36235 12.0737 7.7336 12.0737 6.61735C12.0737 5.3936 11.1262 4.49485 9.66623 4.49485C8.40498 4.49485 7.52873 5.1561 7.24373 6.24735C7.16123 6.56485 6.89623 6.8236 6.56873 6.8236H5.59748H5.59623ZM9.37248 17.5011C10.15 17.5011 10.7412 16.9086 10.7412 16.1386C10.7412 15.3661 10.15 14.7736 9.37248 14.7736C8.61498 14.7736 8.01373 15.3661 8.01373 16.1373C8.01373 16.9086 8.61498 17.5011 9.37248 17.5011Z" fill="#6C757D"/>
</svg>
