<svg width="20" height="20" viewBox="0 0 20 20" fill="none" xmlns="http://www.w3.org/2000/svg">
<path d="M5.00244 13.7511H2.50244V17.5011H5.00244V13.7511ZM11.2524 8.7511H8.75244V17.5011H11.2524V8.7511ZM17.5024 2.5011V17.5011H15.0024V2.5011H17.5024ZM15.0024 1.2511C14.6709 1.2511 14.353 1.38279 14.1186 1.61722C13.8841 1.85164 13.7524 2.16958 13.7524 2.5011V17.5011C13.7524 17.8326 13.8841 18.1506 14.1186 18.385C14.353 18.6194 14.6709 18.7511 15.0024 18.7511H17.5024C17.834 18.7511 18.1519 18.6194 18.3863 18.385C18.6207 18.1506 18.7524 17.8326 18.7524 17.5011V2.5011C18.7524 2.16958 18.6207 1.85164 18.3863 1.61722C18.1519 1.38279 17.834 1.2511 17.5024 1.2511H15.0024ZM7.50244 8.7511C7.50244 8.41958 7.63414 8.10164 7.86856 7.86722C8.10298 7.63279 8.42092 7.5011 8.75244 7.5011H11.2524C11.584 7.5011 11.9019 7.63279 12.1363 7.86722C12.3707 8.10164 12.5024 8.41958 12.5024 8.7511V17.5011C12.5024 17.8326 12.3707 18.1506 12.1363 18.385C11.9019 18.6194 11.584 18.7511 11.2524 18.7511H8.75244C8.42092 18.7511 8.10298 18.6194 7.86856 18.385C7.63414 18.1506 7.50244 17.8326 7.50244 17.5011V8.7511ZM1.25244 13.7511C1.25244 13.4196 1.38414 13.1016 1.61856 12.8672C1.85298 12.6328 2.17092 12.5011 2.50244 12.5011H5.00244C5.33396 12.5011 5.6519 12.6328 5.88632 12.8672C6.12075 13.1016 6.25244 13.4196 6.25244 13.7511V17.5011C6.25244 17.8326 6.12075 18.1506 5.88632 18.385C5.6519 18.6194 5.33396 18.7511 5.00244 18.7511H2.50244C2.17092 18.7511 1.85298 18.6194 1.61856 18.385C1.38414 18.1506 1.25244 17.8326 1.25244 17.5011V13.7511Z" fill="white" fill-opacity="0.7"/>
</svg>
