<svg width="20" height="20" viewBox="0 0 20 20" fill="none" xmlns="http://www.w3.org/2000/svg">
<path d="M15.9399 14.2784C16.3696 14.4933 16.757 14.757 17.1021 15.0695C17.4471 15.382 17.7401 15.7303 17.981 16.1144C18.2218 16.4985 18.4106 16.9152 18.5474 17.3644C18.6841 17.8136 18.7524 18.2758 18.7524 18.7511H17.5024C17.5024 18.2368 17.4048 17.7517 17.2095 17.296C17.0142 16.8403 16.7472 16.4432 16.4087 16.1046C16.0701 15.7661 15.6698 15.4959 15.2075 15.2941C14.7453 15.0922 14.2603 14.9946 13.7524 15.0011C13.2316 15.0011 12.7466 15.0988 12.2974 15.2941C11.8481 15.4894 11.451 15.7563 11.106 16.0948C10.7609 16.4334 10.4907 16.8338 10.2954 17.296C10.1001 17.7583 10.0024 18.2433 10.0024 18.7511H8.75244C8.75244 18.2758 8.81755 17.8136 8.94775 17.3644C9.07796 16.9152 9.26676 16.4985 9.51416 16.1144C9.76156 15.7303 10.0578 15.382 10.4028 15.0695C10.7479 14.757 11.1353 14.4933 11.5649 14.2784C11.0767 13.9269 10.6958 13.4874 10.4224 12.9601C10.1489 12.4327 10.009 11.8631 10.0024 11.2511C10.0024 10.7368 9.90479 10.2517 9.70947 9.79602C9.51416 9.34029 9.24723 8.94316 8.90869 8.60461C8.57015 8.26607 8.16976 7.99589 7.70752 7.79407C7.24528 7.59224 6.76025 7.49459 6.25244 7.5011C5.73161 7.5011 5.24658 7.59875 4.79736 7.79407C4.34814 7.98938 3.95101 8.25631 3.60596 8.59485C3.26091 8.93339 2.99072 9.33378 2.79541 9.79602C2.6001 10.2583 2.50244 10.7433 2.50244 11.2511H1.25244C1.25244 10.7758 1.31755 10.3136 1.44775 9.86438C1.57796 9.41516 1.76676 8.99849 2.01416 8.61438C2.26156 8.23027 2.55778 7.88196 2.90283 7.56946C3.24788 7.25696 3.63525 6.99329 4.06494 6.77844C3.57666 6.42688 3.1958 5.98743 2.92236 5.46008C2.64893 4.93274 2.50895 4.36308 2.50244 3.7511C2.50244 3.23678 2.6001 2.75175 2.79541 2.29602C2.99072 1.84029 3.25765 1.44316 3.59619 1.10461C3.93473 0.766073 4.33187 0.49589 4.7876 0.294067C5.24333 0.0922445 5.73161 -0.00541178 6.25244 0.00109863C6.76676 0.00109863 7.25179 0.0987549 7.70752 0.294067C8.16325 0.48938 8.56038 0.756307 8.89893 1.09485C9.23747 1.43339 9.50765 1.83378 9.70947 2.29602C9.9113 2.75826 10.009 3.24329 10.0024 3.7511C10.0024 4.36308 9.86572 4.93274 9.59229 5.46008C9.31885 5.98743 8.93473 6.42688 8.43994 6.77844C8.93473 7.02584 9.37744 7.34485 9.76807 7.73547C10.1587 8.1261 10.4777 8.56881 10.7251 9.0636C11.0767 8.57532 11.5161 8.19446 12.0435 7.92102C12.5708 7.64758 13.1405 7.50761 13.7524 7.5011C14.2668 7.5011 14.7518 7.59875 15.2075 7.79407C15.6632 7.98938 16.0604 8.25631 16.3989 8.59485C16.7375 8.93339 17.0076 9.33378 17.2095 9.79602C17.4113 10.2583 17.509 10.7433 17.5024 11.2511C17.5024 11.8631 17.3657 12.4327 17.0923 12.9601C16.8188 13.4874 16.4347 13.9269 15.9399 14.2784ZM6.25244 6.2511C6.59749 6.2511 6.91976 6.18599 7.21924 6.05579C7.51872 5.92558 7.78564 5.74654 8.02002 5.51868C8.25439 5.29081 8.43343 5.02714 8.55713 4.72766C8.68083 4.42818 8.74593 4.10266 8.75244 3.7511C8.75244 3.40605 8.68734 3.08378 8.55713 2.7843C8.42692 2.48482 8.24788 2.2179 8.02002 1.98352C7.79215 1.74915 7.52848 1.57011 7.229 1.44641C6.92952 1.32271 6.604 1.25761 6.25244 1.2511C5.90739 1.2511 5.58512 1.3162 5.28564 1.44641C4.98617 1.57662 4.71924 1.75566 4.48486 1.98352C4.25049 2.21139 4.07145 2.47506 3.94775 2.77454C3.82406 3.07402 3.75895 3.39954 3.75244 3.7511C3.75244 4.09615 3.81755 4.41842 3.94775 4.7179C4.07796 5.01737 4.257 5.2843 4.48486 5.51868C4.71273 5.75305 4.9764 5.93209 5.27588 6.05579C5.57536 6.17948 5.90088 6.24459 6.25244 6.2511ZM13.7524 13.7511C14.0975 13.7511 14.4198 13.686 14.7192 13.5558C15.0187 13.4256 15.2856 13.2465 15.52 13.0187C15.7544 12.7908 15.9334 12.5271 16.0571 12.2277C16.1808 11.9282 16.2459 11.6027 16.2524 11.2511C16.2524 10.906 16.1873 10.5838 16.0571 10.2843C15.9269 9.98482 15.7479 9.7179 15.52 9.48352C15.2922 9.24915 15.0285 9.07011 14.729 8.94641C14.4295 8.82271 14.104 8.75761 13.7524 8.7511C13.4074 8.7511 13.0851 8.8162 12.7856 8.94641C12.4862 9.07662 12.2192 9.25566 11.9849 9.48352C11.7505 9.71138 11.5715 9.97506 11.4478 10.2745C11.3241 10.574 11.259 10.8995 11.2524 11.2511C11.2524 11.5962 11.3175 11.9184 11.4478 12.2179C11.578 12.5174 11.757 12.7843 11.9849 13.0187C12.2127 13.2531 12.4764 13.4321 12.7759 13.5558C13.0754 13.6795 13.4009 13.7446 13.7524 13.7511ZM15.0024 2.5011H11.2524V1.2511H16.2524V6.2511H15.0024V2.5011Z" fill="white" fill-opacity="0.7"/>
</svg>
