<svg width="13" height="12" viewBox="0 0 13 12" fill="none" xmlns="http://www.w3.org/2000/svg">
<path d="M6.16857 3.56575C5.84887 3.56575 5.53229 3.62872 5.23693 3.75107C4.94156 3.87341 4.67318 4.05274 4.44712 4.2788C4.22105 4.50486 4.04173 4.77324 3.91939 5.06861C3.79704 5.36398 3.73407 5.68055 3.73407 6.00025C3.73407 6.31995 3.79704 6.63653 3.91939 6.93189C4.04173 7.22726 4.22105 7.49564 4.44712 7.7217C4.67318 7.94777 4.94156 8.12709 5.23693 8.24944C5.53229 8.37178 5.84887 8.43475 6.16857 8.43475C6.81424 8.43475 7.43347 8.17826 7.89002 7.7217C8.34658 7.26515 8.60307 6.64592 8.60307 6.00025C8.60307 5.35458 8.34658 4.73536 7.89002 4.2788C7.43347 3.82224 6.81424 3.56575 6.16857 3.56575ZM4.48407 6.00025C4.48407 5.55349 4.66154 5.12503 4.97745 4.80913C5.29335 4.49322 5.72181 4.31575 6.16857 4.31575C6.61533 4.31575 7.04379 4.49322 7.35969 4.80913C7.6756 5.12503 7.85307 5.55349 7.85307 6.00025C7.85307 6.44701 7.6756 6.87547 7.35969 7.19137C7.04379 7.50728 6.61533 7.68475 6.16857 7.68475C5.72181 7.68475 5.29335 7.50728 4.97745 7.19137C4.66154 6.87547 4.48407 6.44701 4.48407 6.00025Z" fill="#E1122A"/>
<path d="M7.51557 1.0075C7.12032 -0.334999 5.21682 -0.334999 4.82157 1.0075L4.75107 1.24675C4.72347 1.34046 4.67524 1.42681 4.60993 1.49947C4.54462 1.57212 4.46388 1.62924 4.37363 1.66664C4.28337 1.70404 4.18589 1.72076 4.08834 1.71559C3.99078 1.71042 3.89561 1.68348 3.80982 1.63675L3.59082 1.51675C2.36082 0.847751 1.01607 2.19325 1.68582 3.4225L1.80507 3.6415C1.8518 3.72729 1.87874 3.82246 1.88391 3.92002C1.88908 4.01757 1.87236 4.11505 1.83496 4.20531C1.79756 4.29556 1.74044 4.3763 1.66779 4.44161C1.59513 4.50692 1.50878 4.55515 1.41507 4.58275L1.17582 4.65325C-0.16668 5.0485 -0.16668 6.952 1.17582 7.34725L1.41507 7.41775C1.50878 7.44535 1.59513 7.49358 1.66779 7.55889C1.74044 7.6242 1.79756 7.70494 1.83496 7.7952C1.87236 7.88545 1.88908 7.98293 1.88391 8.08049C1.87874 8.17804 1.8518 8.27321 1.80507 8.359L1.68507 8.578C1.01607 9.808 2.36082 11.1535 3.59082 10.483L3.80982 10.3638C3.89561 10.317 3.99078 10.2901 4.08834 10.2849C4.18589 10.2797 4.28337 10.2965 4.37363 10.3339C4.46388 10.3713 4.54462 10.4284 4.60993 10.501C4.67524 10.5737 4.72347 10.66 4.75107 10.7538L4.82157 10.993C5.21682 12.3355 7.12032 12.3355 7.51557 10.993L7.58607 10.7538C7.61367 10.66 7.6619 10.5737 7.72721 10.501C7.79252 10.4284 7.87326 10.3713 7.96351 10.3339C8.05377 10.2965 8.15125 10.2797 8.24881 10.2849C8.34636 10.2901 8.44153 10.317 8.52732 10.3638L8.74632 10.4838C9.97632 11.1535 11.3218 9.80725 10.6513 8.578L10.5321 8.359C10.4853 8.27321 10.4584 8.17804 10.4532 8.08049C10.4481 7.98293 10.4648 7.88545 10.5022 7.7952C10.5396 7.70494 10.5967 7.6242 10.6694 7.55889C10.742 7.49358 10.8284 7.44535 10.9221 7.41775L11.1613 7.34725C12.5038 6.952 12.5038 5.0485 11.1613 4.65325L10.9221 4.58275C10.8284 4.55515 10.742 4.50692 10.6694 4.44161C10.5967 4.3763 10.5396 4.29556 10.5022 4.20531C10.4648 4.11505 10.4481 4.01757 10.4532 3.92002C10.4584 3.82246 10.4853 3.72729 10.5321 3.6415L10.6521 3.4225C11.3218 2.1925 9.97557 0.847751 8.74632 1.5175L8.52732 1.63675C8.44153 1.68348 8.34636 1.71042 8.24881 1.71559C8.15125 1.72076 8.05377 1.70404 7.96351 1.66664C7.87326 1.62924 7.79252 1.57212 7.72721 1.49947C7.6619 1.42681 7.61367 1.34046 7.58607 1.24675L7.51557 1.0075ZM5.54082 1.21975C5.72532 0.593501 6.61182 0.593501 6.79632 1.21975L6.86682 1.459C6.92609 1.66006 7.0296 1.84532 7.16977 2.00118C7.30993 2.15703 7.48321 2.27955 7.67688 2.35974C7.87055 2.43992 8.07971 2.47575 8.28903 2.46459C8.49835 2.45343 8.70252 2.39557 8.88657 2.29525L9.10482 2.17525C9.67782 1.864 10.3048 2.49025 9.99282 3.064L9.87357 3.283C9.7734 3.46707 9.71568 3.67122 9.70464 3.88049C9.69361 4.08976 9.72953 4.29885 9.80978 4.49244C9.89004 4.68603 10.0126 4.8592 10.1685 4.99928C10.3243 5.13936 10.5095 5.2428 10.7106 5.302L10.9491 5.3725C11.5753 5.557 11.5753 6.4435 10.9491 6.628L10.7098 6.6985C10.5088 6.75777 10.3235 6.86128 10.1676 7.00145C10.0118 7.14161 9.88927 7.31489 9.80909 7.50856C9.7289 7.70223 9.69307 7.91139 9.70423 8.12071C9.71539 8.33003 9.77325 8.5342 9.87357 8.71825L9.99357 8.9365C10.3048 9.5095 9.67857 10.1365 9.10482 9.8245L8.88657 9.70525C8.70247 9.60494 8.49825 9.54711 8.28889 9.536C8.07953 9.52488 7.87034 9.56078 7.67666 9.64104C7.48297 9.7213 7.30971 9.8439 7.16958 9.99985C7.02945 10.1558 6.926 10.3411 6.86682 10.5423L6.79632 10.7808C6.61182 11.407 5.72532 11.407 5.54082 10.7808L5.47032 10.5415C5.41103 10.3405 5.30753 10.1554 5.16742 9.99961C5.0273 9.84383 4.85411 9.72137 4.66054 9.64119C4.46696 9.56101 4.2579 9.52515 4.04867 9.53624C3.83944 9.54732 3.63534 9.60507 3.45132 9.70525L3.23232 9.82525C2.65932 10.1365 2.03232 9.51025 2.34432 8.9365L2.46357 8.71825C2.56403 8.53417 2.62201 8.32994 2.63324 8.12053C2.64447 7.91112 2.60868 7.70185 2.52848 7.50808C2.44828 7.31431 2.32572 7.14096 2.16978 7.00074C2.01384 6.86052 1.82849 6.75699 1.62732 6.69775L1.38807 6.62725C0.76182 6.44275 0.76182 5.55625 1.38807 5.37175L1.62732 5.30125C1.82817 5.24193 2.01322 5.13846 2.16893 4.99839C2.32463 4.85833 2.44704 4.68522 2.52721 4.49174C2.60738 4.29826 2.64327 4.08931 2.63226 3.88017C2.62125 3.67102 2.56361 3.46699 2.46357 3.283L2.34357 3.064C2.03232 2.491 2.65857 1.864 3.23232 2.176L3.45132 2.29525C3.63534 2.39543 3.83944 2.45318 4.04867 2.46427C4.2579 2.47535 4.46696 2.43949 4.66054 2.35931C4.85411 2.27914 5.0273 2.15667 5.16742 2.00089C5.30753 1.84511 5.41103 1.65996 5.47032 1.459L5.54082 1.21975Z" fill="#E1122A"/>
</svg>
